<?xml version="1.0" encoding="UTF-8" standalone="no"?>
<!DOCTYPE svg PUBLIC "-//W3C//DTD SVG 1.1//EN" "http://www.w3.org/Graphics/SVG/1.1/DTD/svg11.dtd">
<svg width="100%" height="100%" viewBox="0 0 1758 1961" version="1.1" xmlns="http://www.w3.org/2000/svg" xmlns:xlink="http://www.w3.org/1999/xlink" xml:space="preserve" xmlns:serif="http://www.serif.com/" style="fill-rule:evenodd;clip-rule:evenodd;stroke-linejoin:round;stroke-miterlimit:2;">
    <path d="M676.364,1960.75C425.834,1960.75 222.736,1928.67 222.736,1889.09C222.736,1849.52 425.834,1817.44 676.364,1817.44C926.894,1817.44 1129.99,1849.52 1129.99,1889.09C1129.99,1928.67 926.894,1960.75 676.364,1960.75Z" style="fill:rgb(102,102,102);fill-rule:nonzero;"/>
    <path d="M696.645,825.162C696.645,825.162 826.371,822.234 935.718,841.07C976.203,848.04 1043.11,854.726 1043.11,854.726C1043.11,854.726 1209.91,726.392 1271.95,715.495C1321.25,706.833 1389.11,719.549 1446.82,762.293C1500.78,802.266 1479.32,835.239 1451.15,841.07C1451.15,841.07 1485.39,893.103 1449.82,909.686C1412.85,926.925 1381.62,872.712 1381.62,872.712C1381.62,872.712 1273.22,999.113 1220.99,1036.59C1125.46,1105.13 995.877,1157.76 801.903,1034.86" style="fill:white;fill-rule:nonzero;"/>
    <path d="M696.645,825.156L785.892,1002.99L801.891,1034.85C995.877,1157.78 1125.46,1105.13 1220.98,1036.59C1273.22,999.119 1381.61,872.718 1381.61,872.718C1381.61,872.718 1412.84,926.931 1449.82,909.68C1485.4,893.097 1451.16,841.07 1451.16,841.07C1469.34,837.305 1484.73,822.216 1478.82,801.254C1475.6,789.743 1465.95,776.472 1446.83,762.293C1389.12,719.537 1321.23,706.821 1271.93,715.501C1209.93,726.398 1043.12,854.72 1043.12,854.72C1043.12,854.72 976.197,848.046 935.712,841.07C826.377,822.246 696.645,825.156 696.645,825.156Z" style="fill:white;fill-rule:nonzero;"/>
    <path d="M696.645,825.156L756.515,944.424C812.041,918.251 857.357,879.929 886.572,834.101C790.994,823.047 696.645,825.156 696.645,825.156Z" style="fill:rgb(232,232,232);fill-rule:nonzero;"/>
    <path d="M326.769,890.988C360.176,920.95 401.89,945.008 449.079,960.875L466.68,840.432C466.68,840.432 392.975,848.335 326.769,890.988Z" style="fill:rgb(232,232,232);fill-rule:nonzero;"/>
    <path d="M368.139,922.311C426.647,959.833 501.184,982.295 582.34,982.295C692.477,982.295 790.38,940.955 852.628,876.803L768.056,756.414C548.21,367.581 383.144,684.901 383.144,684.901C383.144,684.901 371.5,790.2 368.139,922.311Z" style="fill:rgb(232,232,232);fill-rule:nonzero;"/>
    <path d="M785.892,1002.99L801.891,1034.85C995.877,1157.78 1125.46,1105.13 1220.98,1036.59C1273.22,999.119 1381.61,872.718 1381.61,872.718C1381.61,872.718 1412.84,926.931 1449.82,909.68C1485.4,893.097 1451.16,841.07 1451.16,841.07C1469.34,837.305 1484.73,822.216 1478.82,801.254C1474.48,808.97 1462.51,818.614 1429.74,812.126C1366.48,799.573 1331.89,743.969 1313.87,752.01C1194.94,805.151 1202.53,1013.11 1081.1,1041.45C959.638,1069.78 906.015,911.842 841.255,896.271C810.541,888.874 794.409,943.49 785.892,1002.99Z" style="fill:rgb(232,232,232);fill-rule:nonzero;"/>
    <path d="M1021.34,1119.45C950.157,1119.45 876.199,1094.58 796.186,1043.89C791.199,1040.73 789.717,1034.13 792.879,1029.15C796.036,1024.16 802.638,1022.69 807.619,1025.84C1000.62,1148.13 1126.58,1091.18 1214.76,1027.92C1265.35,991.614 1372.43,867.014 1373.51,865.755C1375.77,863.129 1379.14,861.749 1382.61,862.075C1386.06,862.4 1389.14,864.376 1390.87,867.381C1391.12,867.821 1417.69,912.884 1445.3,900.006C1450.3,897.674 1453.22,894.488 1454.51,889.976C1458.44,876.194 1446.65,853.714 1442.22,846.925C1440.28,843.968 1439.93,840.239 1441.28,836.974C1442.65,833.715 1445.53,831.324 1448.98,830.607C1459.4,828.451 1467.27,821.909 1469.02,813.94C1471.66,801.971 1461.25,786.279 1440.46,770.876C1380.81,726.687 1315.26,718.73 1273.8,726.012C1215.03,736.337 1051.28,861.924 1049.63,863.189C1047.47,864.852 1044.77,865.635 1042.05,865.358C1039.31,865.081 974.3,858.551 933.905,851.593C826.877,833.161 698.169,835.818 696.886,835.842C696.802,835.848 696.718,835.848 696.639,835.848C690.851,835.848 686.092,831.221 685.965,825.409C685.827,819.505 690.501,814.62 696.405,814.488C697.706,814.452 828.425,811.747 937.532,830.541C971.403,836.378 1024.75,842.088 1039.99,843.666C1064.79,824.8 1210.48,715.447 1270.1,704.972C1315.94,696.918 1388.09,705.496 1453.18,753.709C1489.41,780.55 1493.14,803.778 1489.89,818.536C1487.24,830.583 1478.6,840.841 1466.67,846.889C1472.72,859.141 1479.9,878.73 1475.07,895.777C1472.1,906.27 1464.93,914.426 1454.33,919.366C1421.38,934.732 1393.81,907.282 1380.63,890.157C1353.23,921.552 1271.55,1013.46 1227.21,1045.27C1165.65,1089.45 1109.13,1112.61 1049.35,1118.15C1040.06,1119.01 1030.72,1119.45 1021.34,1119.45Z" style="fill:rgb(55,26,69);fill-rule:nonzero;"/>
    <path d="M1359.46,821.445C1359.46,821.445 1410.77,901.999 1359.55,936.539C1322.29,961.67 1283.11,946.99 1279.61,904.692C1279.61,904.692 1258.5,878.375 1273.99,844.401C1289.48,810.422 1359.46,821.445 1359.46,821.445Z" style="fill:rgb(232,232,232);fill-rule:nonzero;"/>
    <path d="M1335.17,830.432C1315.11,830.432 1290.45,834.041 1283.71,848.829C1271.09,876.501 1287.77,897.795 1287.95,898.006C1289.27,899.668 1290.08,901.686 1290.25,903.807C1291.5,918.836 1298.07,929.931 1308.76,935.063C1321.15,941.015 1337.91,938.256 1353.58,927.684C1389.64,903.367 1361.75,847.154 1352.89,831.36C1348.06,830.836 1341.87,830.432 1335.17,830.432ZM1322.98,959.489C1314.68,959.489 1306.73,957.785 1299.51,954.327C1282.75,946.279 1271.84,929.696 1269.27,908.565C1263.62,900.012 1249.15,873.122 1264.27,839.968C1282.6,799.766 1353.13,809.633 1361.12,810.892C1364.15,811.367 1366.83,813.12 1368.47,815.705C1370.8,819.349 1424.69,905.499 1365.53,945.394C1351.73,954.7 1336.89,959.489 1322.98,959.489Z" style="fill:rgb(55,26,69);fill-rule:nonzero;"/>
    <path d="M1308.53,915.721C1293.1,915.721 1278.29,911.162 1266.74,902.066C1262.11,898.409 1261.32,891.693 1264.97,887.061C1268.62,882.423 1275.34,881.634 1279.97,885.284C1297.47,899.078 1323.94,895.542 1341.04,884.922C1348.41,880.35 1365.06,867.418 1360.58,846.208C1359.36,840.438 1363.06,834.769 1368.83,833.553C1374.59,832.33 1380.27,836.022 1381.48,841.793C1386.53,865.683 1375.63,888.597 1352.31,903.072C1338.71,911.517 1323.34,915.721 1308.53,915.721Z" style="fill:rgb(55,26,69);fill-rule:nonzero;"/>
    <path d="M1451.15,841.07C1406.35,841.07 1364.88,802.013 1345.89,793.272" style="fill:white;fill-rule:nonzero;"/>
    <path d="M1451.15,851.75C1415.1,851.75 1381.75,829.258 1359.68,814.367C1352.19,809.319 1345.73,804.958 1341.42,802.97C1336.07,800.507 1333.72,794.158 1336.19,788.803C1338.65,783.442 1345,781.099 1350.36,783.568C1356.24,786.279 1363.37,791.086 1371.63,796.658C1392.73,810.892 1421.63,830.384 1451.15,830.384C1457.05,830.384 1461.83,835.167 1461.83,841.07C1461.83,846.967 1457.05,851.75 1451.15,851.75Z" style="fill:rgb(55,26,69);fill-rule:nonzero;"/>
    <path d="M1318.15,713.519L1573.58,1601.47L1318.15,713.519Z" style="fill:white;fill-rule:nonzero;"/>
    <path d="M1573.58,1609.48C1570.09,1609.48 1566.89,1607.19 1565.88,1603.68L1310.46,715.736C1309.23,711.483 1311.68,707.044 1315.94,705.821C1320.21,704.598 1324.63,707.056 1325.85,711.302L1581.27,1599.25C1582.5,1603.51 1580.05,1607.94 1575.79,1609.16C1575.05,1609.38 1574.31,1609.48 1573.58,1609.48Z" style="fill:rgb(55,26,69);fill-rule:nonzero;"/>
    <path d="M679.4,1555.47C679.4,1555.47 634.246,1557.24 573.486,1554.74C561.583,1554.23 549.108,1553.6 536.266,1552.75C440.429,1546.41 323.871,1528.51 278.664,1480.41C211.018,1408.5 191.491,1049.94 246.951,906.282C256.28,882.007 280.729,862.34 312.721,846.503C367.44,819.391 444.326,803.416 505.539,794.339C516.369,792.724 526.742,791.321 536.356,790.128C577.022,785.056 605.206,783.388 605.206,783.388L611.868,852.973L612.392,858.394L616.085,896.608L679.4,1555.47Z" style="fill:white;fill-rule:nonzero;"/>
    <path d="M611.868,852.973C467.819,889.699 363.23,872.044 312.721,846.503C367.44,819.391 444.326,803.416 505.539,794.339C516.369,792.724 526.742,791.321 536.356,790.128C577.022,785.056 605.206,783.388 605.206,783.388L611.868,852.973Z" style="fill:rgb(216,216,216);fill-rule:nonzero;"/>
    <path d="M612.392,858.394L616.079,896.596L666.358,1419.75L679.406,1555.46C679.406,1555.46 678.46,1555.5 676.665,1555.56C676.159,1555.56 675.551,1555.58 674.912,1555.6C674.4,1555.61 673.828,1555.63 673.25,1555.64C672.816,1555.67 672.37,1555.66 671.936,1555.69C671.762,1555.69 671.563,1555.72 671.394,1555.7C670.581,1555.72 669.665,1555.75 668.72,1555.75C668.521,1555.78 668.316,1555.78 668.075,1555.78C667.298,1555.79 666.485,1555.8 665.606,1555.83C664.425,1555.86 663.202,1555.87 661.913,1555.89C660.997,1555.88 660.016,1555.92 659.034,1555.93C658.016,1555.94 656.998,1555.95 655.95,1555.96C654.63,1555.99 653.233,1555.98 651.817,1556.02C648.932,1556.03 645.878,1556.06 642.655,1556.06C639.806,1556.09 636.818,1556.08 633.692,1556.06C630.09,1556.04 626.319,1556.04 622.41,1555.99C607.959,1555.83 591.406,1555.48 573.474,1554.74C569.992,1554.6 566.438,1554.43 562.848,1554.27C560.354,1554.15 557.788,1554.01 555.222,1553.87C549.03,1553.55 542.663,1553.17 536.247,1552.74C440.411,1546.42 323.889,1528.51 278.681,1480.41C222.971,1421.2 199.869,1167.63 224.44,999.697C222.982,1145.25 246.411,1300.21 288.404,1344.84C309.161,1366.91 384.963,1282.47 381.494,1235.98C372.536,1116.09 384.704,960.706 491.124,863.767C493.889,861.249 558.908,866.52 612.392,858.394Z" style="fill:rgb(232,232,232);fill-rule:nonzero;"/>
    <path d="M595.55,794.736C502.28,801.501 286.687,832.884 256.888,910.107C231.725,975.313 220.39,1093.92 227.299,1219.66C234.058,1342.61 257.268,1442.09 286.434,1473.11C355.947,1547.04 610.766,1546.24 667.69,1545.1L595.55,794.736ZM636.463,1566.84C545.199,1566.84 337.623,1558.74 270.869,1487.74C200.288,1412.69 179.37,1051.65 236.952,902.415C255.021,855.587 322.986,819.542 438.953,795.278C523.291,777.635 603.761,772.78 604.568,772.732L614.838,772.129L615.826,782.37L691.134,1565.7L679.839,1566.14C677.044,1566.25 660.931,1566.84 636.463,1566.84Z" style="fill:rgb(55,26,69);fill-rule:nonzero;"/>
    <path d="M242.114,1210.41L372.223,1213.66C383.837,1213.96 393.8,1222.03 396.438,1233.34C406.094,1274.78 423.424,1371.65 384.355,1405.87C351.929,1434.28 296.957,1433.88 263.478,1408.3C226.029,1379.68 217.743,1284.24 215.96,1236.88C215.406,1222.16 227.384,1210.04 242.114,1210.41Z" style="fill:white;fill-rule:nonzero;"/>
    <path d="M396.432,1233.36C406.106,1274.78 423.418,1371.65 384.343,1405.87C351.911,1434.29 296.951,1433.88 263.46,1408.29C240.441,1390.68 228.44,1347.8 222.204,1306.39C229.082,1326.89 239.092,1343.32 251.049,1353.83C319.552,1414.04 364.585,1336.76 364.585,1336.76C364.585,1336.76 373.958,1354.52 380.753,1355.21C409.178,1358.1 398.932,1270.09 392.577,1224.67C394.36,1227.22 395.697,1230.14 396.432,1233.36Z" style="fill:rgb(232,232,232);fill-rule:nonzero;"/>
    <path d="M241.458,1221.09C237.457,1221.09 233.72,1222.64 230.9,1225.49C227.992,1228.44 226.479,1232.34 226.635,1236.48C229.795,1320.43 245.994,1381.5 269.965,1399.81C300.391,1423.06 349.55,1422.17 377.319,1397.84C401.486,1376.66 404.751,1316.07 386.035,1235.76C384.511,1229.21 378.717,1224.52 371.958,1224.34L241.849,1221.09L241.458,1221.09ZM322.847,1438.1C299.331,1438.1 275.634,1431.03 256.99,1416.79C216.724,1386.02 207.312,1291.12 205.285,1237.28C204.909,1227.33 208.704,1217.57 215.698,1210.48C222.695,1203.4 232.398,1199.41 242.383,1199.73L372.488,1202.99C388.981,1203.4 403.106,1214.89 406.841,1230.92C419.087,1283.48 433.363,1377.14 391.396,1413.91C373.036,1429.99 348.044,1438.1 322.847,1438.1Z" style="fill:rgb(55,26,69);fill-rule:nonzero;"/>
    <path d="M316.342,1419.1C347.448,1399.01 358.586,1359.37 359.814,1323.97C360.134,1304.22 360.357,1283.58 355.038,1264.48C354.405,1262.97 355.158,1261.17 356.748,1260.67C358.152,1260.2 359.664,1260.91 360.23,1262.26C361.856,1266.17 362.79,1269.68 363.742,1273.44C367.284,1288.14 368.82,1303.21 369.705,1318.27C372.651,1360.67 362.302,1409.44 325.588,1435.53C314.318,1442.16 304.782,1425.32 316.342,1419.1Z" style="fill:rgb(55,26,69);fill-rule:nonzero;"/>
    <path d="M442.086,891.988C410.461,891.302 378.56,891.753 346.978,893.627C316.004,895.608 284.055,898.464 254.376,906.632C240.734,910.095 235.014,890.38 248.522,886.073C296.861,875.845 345.749,876.917 394.643,878.266C410.69,878.887 426.647,879.724 442.718,880.995C449.742,881.694 449.242,892.078 442.086,891.988Z" style="fill:rgb(55,26,69);fill-rule:nonzero;"/>
    <path d="M536.428,1213.56C536.428,1213.56 635.373,1368.03 660.883,1441.27C695.007,1539.24 657.1,1807.95 683.333,1857.19C694.748,1878.63 722.168,1898.76 825.359,1898.76C896.908,1898.76 964.71,1895.08 966.704,1841.74C968.288,1799.26 912.358,1779.82 912.358,1779.82L974.896,1314.33" style="fill:white;fill-rule:nonzero;"/>
    <path d="M660.883,1441.26C695.013,1539.24 657.094,1807.95 683.345,1857.19C694.748,1878.64 722.174,1898.75 825.365,1898.75C896.908,1898.75 964.716,1895.07 966.716,1841.73C966.825,1838.58 966.638,1835.57 966.156,1832.65C960.307,1796.47 912.346,1779.83 912.346,1779.83L958.596,1435.54L974.89,1314.33L536.434,1213.56C536.434,1213.56 635.379,1368.03 660.883,1441.26Z" style="fill:white;fill-rule:nonzero;"/>
    <path d="M660.883,1441.26C695.013,1539.24 657.094,1807.95 683.345,1857.19C694.748,1878.64 722.174,1898.75 825.365,1898.75C896.908,1898.75 964.716,1895.07 966.716,1841.73C966.825,1838.58 966.638,1835.57 966.156,1832.65C966.156,1832.65 940.411,1858.13 831.13,1858.83C726.553,1859.47 697.543,1835.2 701.591,1743.44C705.554,1653.61 707.663,1601.59 748.648,1582.87C799.325,1559.72 915.124,1523.67 958.596,1435.54L974.89,1314.33L536.434,1213.56C536.434,1213.56 635.379,1368.03 660.883,1441.26Z" style="fill:rgb(232,232,232);fill-rule:nonzero;"/>
    <path d="M545.427,1207.8C569.865,1246.37 593.358,1285.27 615.808,1325.04C635.3,1360.13 654.889,1395.55 669.316,1433.24C679.635,1460.9 682.538,1491.19 684.664,1519.74C688.941,1588.08 685.64,1656.75 684.472,1724.81C684.068,1747.43 683.785,1770.02 684.423,1792.36C684.767,1803.52 685.327,1814.64 686.55,1825.42C687.905,1835.38 688.845,1845.21 693.73,1853.91C712.747,1885.47 774.73,1886.31 809.782,1887.9C831.955,1888.26 854.724,1888.18 876.819,1886.67C897.462,1885.03 920.081,1882.42 937.676,1872.25C950.199,1865.13 956.476,1852.88 956.012,1839.21C955.127,1814.91 931.297,1799.04 908.853,1789.91C903.974,1788.22 901.101,1783.32 901.769,1778.4L964.307,1312.9C965.09,1307.05 970.469,1302.95 976.318,1303.74C982.161,1304.53 986.269,1309.9 985.48,1315.75L922.942,1781.24L915.865,1769.73C922.177,1772.07 927.243,1774.52 932.96,1777.63C958.566,1791.13 982.053,1817.44 976.788,1848.91C967.584,1908.51 890.221,1907.78 843.731,1909.33C797.325,1909.16 725.938,1911.32 688.381,1880.41C672.491,1867.47 667.148,1847.31 665.328,1827.85C661.72,1793.33 662.666,1758.79 663.112,1724.42C664.268,1656.43 667.557,1588.8 663.347,1521.17C661.805,1498.93 659.455,1476.66 654.112,1455.86C641.354,1413.27 618.356,1374.51 597.189,1335.52C574.998,1296.21 551.535,1257.35 527.375,1219.23C520.321,1207.68 537.067,1195.74 545.427,1207.8Z" style="fill:rgb(55,26,69);fill-rule:nonzero;"/>
    <path d="M785.38,1661.09C724.402,1661.09 676.689,1645.98 673.201,1644.85C668.997,1643.48 666.696,1638.96 668.057,1634.75C669.425,1630.54 673.936,1628.24 678.153,1629.6C679.605,1630.08 825.022,1675.97 930.46,1605.16C934.134,1602.7 939.11,1603.68 941.579,1607.35C944.043,1611.02 943.067,1616 939.393,1618.47C889.975,1651.66 833.539,1661.09 785.38,1661.09Z" style="fill:rgb(55,26,69);fill-rule:nonzero;"/>
    <path d="M768.044,756.402C548.222,367.594 383.138,684.889 383.138,684.889C383.138,684.889 360.899,885.94 368.982,1080.92C374.717,1219.31 385.313,1271.79 397.974,1350.03C447.037,1617.28 902.896,1596.85 966.885,1366.26C1003.1,1235.75 957.813,1050.39 874.392,907.758L768.044,756.402Z" style="fill:white;fill-rule:nonzero;"/>
    <path d="M768.044,756.402C548.222,367.594 383.138,684.889 383.138,684.889C383.138,684.889 360.899,885.94 368.982,1080.92C374.717,1219.31 385.313,1271.79 397.974,1350.03C447.037,1617.28 902.896,1596.85 966.885,1366.26C1003.1,1235.75 957.813,1050.39 874.392,907.758L768.044,756.402Z" style="fill:white;fill-rule:nonzero;"/>
    <path d="M368.988,1080.91C374.705,1219.3 385.306,1271.78 397.968,1350.03C401.04,1366.8 405.739,1382.42 411.829,1396.95C502.678,1613.88 906.895,1582.37 966.879,1366.27C971.095,1351.1 974.198,1335.15 976.276,1318.65C992.034,1193.21 948.127,1033.81 874.398,907.758L768.056,756.414C548.21,367.581 383.144,684.901 383.144,684.901C383.144,684.901 360.899,885.94 368.988,1080.91Z" style="fill:white;fill-rule:nonzero;"/>
    <path d="M963.192,1241.66L889.794,1286.18L895.746,1314.42C901.07,1339.68 884.294,1364.3 858.833,1368.57L613.585,1409.74C588.786,1413.9 565.318,1397.11 561.258,1372.29L552.517,1318.87L364.916,1294.27L332.612,1169.74L420.593,1155.83C420.593,1155.83 401.854,1232.38 486.54,1252.96C571.227,1273.53 961.512,1200.96 961.512,1200.96L963.192,1241.66Z" style="fill:rgb(232,232,232);fill-rule:nonzero;"/>
    <path d="M411.829,1396.95C502.678,1613.88 906.895,1582.37 966.879,1366.27C971.095,1351.1 974.198,1335.15 976.276,1318.65C976.252,1318.73 976.252,1318.78 976.222,1318.86C945.537,1431.81 645.715,1540.84 411.829,1396.95Z" style="fill:rgb(232,232,232);fill-rule:nonzero;"/>
    <path d="M392.065,1384.08C393.854,1407.44 395.294,1427.75 395.962,1440.19C398.498,1486.9 400.426,1541.67 402.028,1596.09L669.75,1613.03C671.617,1585.17 672.792,1555.9 672.846,1526.23L612.814,1463.48C538.518,1456.32 461.819,1432.18 392.065,1384.08Z" style="fill:rgb(232,232,232);fill-rule:nonzero;"/>
    <path d="M368.139,922.311C426.647,959.833 501.184,982.295 582.34,982.295C692.477,982.295 790.38,940.955 852.628,876.803L768.056,756.414C548.21,367.581 383.144,684.901 383.144,684.901C383.144,684.901 371.5,790.2 368.139,922.311Z" style="fill:rgb(232,232,232);fill-rule:nonzero;"/>
    <path d="M941.037,1412.79C991.359,1290.77 964.777,1152.13 921.816,1031.54C906.877,990.324 889.252,950.086 869.771,910.439C868.47,907.788 869.567,904.578 872.217,903.277C874.639,902.084 877.524,902.897 879,905.066C929.346,979.566 961.927,1065.39 979.529,1153.47C992.528,1222.67 996.244,1295.76 978.3,1364.71C976.258,1373.15 972.138,1381.15 968.391,1388.92C963.12,1399.3 957.006,1409.12 950.187,1418.31C948.422,1420.69 945.061,1421.19 942.682,1419.43C940.58,1417.87 939.947,1415.07 941.037,1412.79Z" style="fill:rgb(55,26,69);fill-rule:nonzero;"/>
    <path d="M758.743,761.66C687.092,633.694 562.547,485.71 428.484,638.729C414.991,654.355 402.54,671.787 392.613,689.816L393.758,686.063C388.716,735.638 385.234,785.731 382.626,835.667C373.548,1009.93 378.096,1185.99 411.636,1357.59C439.562,1484.14 573.245,1539.24 692.435,1533.47C741.69,1531.59 789.115,1519.46 835.967,1504.11C838.798,1503.15 841.87,1504.7 842.797,1507.54C843.575,1509.91 842.611,1512.44 840.611,1513.73C797.042,1541.8 744.606,1552.67 693.417,1555.38C562.011,1562.89 419.286,1501.9 388.565,1362.87C386.156,1352.23 383.728,1336.05 381.909,1325.07C345.858,1113.3 351.574,896.801 372.524,683.714L372.741,681.678L373.663,679.955C384.602,659.975 397.577,641.946 412.347,624.73C457.886,571.011 525.435,534.502 596.135,561.06C679.376,593.01 734.281,677.564 777.344,751.143C783.983,763.793 765.966,773.732 758.743,761.66Z" style="fill:rgb(55,26,69);fill-rule:nonzero;"/>
    <path d="M672.84,1526.24C672.581,1673.64 644.282,1811.49 644.282,1811.49C644.282,1811.49 674.039,1850 644.764,1885.42C626.952,1906.97 583.099,1907.01 583.099,1907.01L459.343,1907.01C459.343,1907.01 425.52,1903.76 412.515,1866.36C406.088,1847.89 404.57,1598.05 395.968,1440.18C393.282,1390.91 378.638,1218.67 378.638,1218.67L672.84,1526.24Z" style="fill:white;fill-rule:nonzero;"/>
    <path d="M672.84,1526.24C672.581,1673.64 644.282,1811.49 644.282,1811.49C644.282,1811.49 674.039,1850 644.764,1885.42C626.952,1906.97 583.099,1907.01 583.099,1907.01L459.343,1907.01C459.343,1907.01 425.52,1903.76 412.515,1866.36C406.088,1847.89 404.57,1598.05 395.968,1440.18C393.282,1390.91 378.638,1218.67 378.638,1218.67L672.84,1526.24Z" style="fill:white;fill-rule:nonzero;"/>
    <path d="M409.317,1832.95C410.25,1850.97 411.293,1862.86 412.521,1866.36C425.526,1903.77 459.337,1907.01 459.337,1907.01L583.093,1907.01C583.093,1907.01 626.94,1906.98 644.752,1885.42C658.13,1869.27 659.202,1852.47 656.395,1838.96C654.715,1841.95 652.631,1844.94 650.173,1847.93C631.56,1870.47 598.369,1870.52 540.175,1870.52C481.986,1870.52 424.002,1867.4 409.317,1832.95Z" style="fill:rgb(232,232,232);fill-rule:nonzero;"/>
    <path d="M392.065,1384.08C393.854,1407.44 395.294,1427.75 395.962,1440.19C397.878,1475.43 399.444,1515.26 400.781,1556.08C437.797,1576.8 540.343,1602.44 671.364,1584.9C672.274,1565.73 672.81,1546.07 672.846,1526.23L612.814,1463.48C538.518,1456.32 461.819,1432.18 392.065,1384.08Z" style="fill:rgb(232,232,232);fill-rule:nonzero;"/>
    <path d="M678.183,1526.24C684.827,1598.3 677.581,1670.99 666.81,1742.26C663.19,1766.1 659.467,1789.74 654.745,1813.64L652.733,1804.96C673.141,1832.55 674.725,1871.94 648.806,1896.65C629.819,1913.6 601.881,1917.67 577.799,1917.7C547.235,1917.7 490.431,1917.69 459.343,1917.7C449.928,1916.87 441.086,1913.28 433.008,1908.55C417.617,1899.15 406.576,1884.46 401.655,1867.01C400.052,1858.84 399.818,1851.29 399.191,1843.21C393.173,1721.43 392.161,1563.13 385.349,1441.71C380.674,1367.66 374.084,1293.57 367.988,1219.57C367.157,1206.03 387.385,1203.21 389.276,1217.77C395.39,1292.03 401.986,1366.13 406.684,1440.56C413.925,1565.89 414.051,1727.24 421.316,1852.71C421.726,1872.69 437.453,1890.66 456.597,1895.6C457.705,1895.86 459.41,1896.28 460.367,1896.38L459.343,1896.33L577.787,1896.33C582.937,1896.34 588.388,1896.28 593.52,1895.63C611.362,1893.33 630.813,1889.23 640.391,1873.28C648.739,1860.59 648.595,1844.21 642.577,1830.36C641.192,1827.02 639.511,1823.73 637.602,1820.66C635.078,1817.15 632.819,1813.59 633.819,1809.34C638.306,1786.3 642.252,1762.69 645.474,1739.18C651.847,1692.85 656.233,1643.98 660.678,1597.39C663.07,1573.69 664.822,1549.97 667.515,1526.13C668.148,1520.05 677.514,1519.66 678.183,1526.24Z" style="fill:rgb(55,26,69);fill-rule:nonzero;"/>
    <path d="M665.112,1663.67C665.112,1663.67 582.636,1701.36 408.498,1658.81" style="fill:white;fill-rule:nonzero;"/>
    <path d="M561.987,1687.18C521.965,1687.18 470.355,1682.17 406.594,1666.59C402.293,1665.54 399.661,1661.2 400.715,1656.9C401.763,1652.61 406.106,1649.96 410.395,1651.02C579.112,1692.25 660.991,1656.75 661.799,1656.38C665.828,1654.57 670.575,1656.35 672.394,1660.37C674.219,1664.39 672.46,1669.13 668.443,1670.96C666.238,1671.97 631.704,1687.18 561.987,1687.18Z" style="fill:rgb(55,26,69);fill-rule:nonzero;"/>
    <path d="M455.958,1799.9C455.958,1799.9 529.621,1774.09 619.458,1800.59" style="fill:white;fill-rule:nonzero;"/>
    <path d="M454.193,1794.86C507.135,1775.15 568.143,1776.26 620.97,1795.47C627.199,1797.77 624.446,1807.17 617.946,1805.71C578.262,1797.5 537.717,1794.25 497.383,1798.57C483.95,1799.98 470.234,1801.98 457.38,1805.03C451.055,1806.48 448.115,1797.31 454.193,1794.86Z" style="fill:rgb(55,26,69);fill-rule:nonzero;"/>
    <path d="M912.358,1779.82C912.358,1779.82 849.978,1792.34 797.548,1788.5" style="fill:white;fill-rule:nonzero;"/>
    <path d="M913.931,1787.68C875.524,1795.24 836.129,1797.52 797.162,1793.83C790.464,1793.08 791.036,1783.1 797.813,1783.17C816.697,1783.66 835.684,1782.41 854.58,1780.31C871.042,1778.57 894.342,1774.58 910.901,1771.95C921.051,1770.54 923.882,1785.19 913.931,1787.68Z" style="fill:rgb(55,26,69);fill-rule:nonzero;"/>
    <path d="M466.68,840.426C466.68,840.426 380.909,849.606 311.3,901.686C259.207,940.659 115.624,1074.97 98.955,1142.72C78.88,1224.31 142.746,1305.29 246.774,1284.9C354.742,1263.74 420.593,1155.83 420.593,1155.83L466.68,840.426Z" style="fill:white;fill-rule:nonzero;"/>
    <path d="M246.785,1284.89C353.074,1264.06 418.527,1159.16 420.533,1155.9L420.587,1155.83L466.68,840.432C466.68,840.432 380.903,849.618 311.306,901.692C259.201,940.659 115.634,1074.96 98.943,1142.71C97.955,1146.69 97.18,1150.67 96.593,1154.65C85.216,1231.96 147.815,1304.31 246.785,1284.89Z" style="fill:white;fill-rule:nonzero;"/>
    <path d="M326.769,890.988C360.176,920.95 401.89,945.008 449.079,960.875L466.68,840.432C466.68,840.432 392.975,848.335 326.769,890.988Z" style="fill:rgb(232,232,232);fill-rule:nonzero;"/>
    <path d="M246.785,1284.89C353.074,1264.06 418.527,1159.16 420.533,1155.9C418.425,1158.28 355.507,1228.41 294.777,1213.56C262.544,1205.68 315.848,1141.96 296.271,1112.3C278.754,1085.67 131.204,1090.24 96.593,1154.65C85.216,1231.96 147.815,1304.31 246.785,1284.89Z" style="fill:rgb(232,232,232);fill-rule:nonzero;"/>
    <path d="M467.819,851.051C420.003,857.888 372.856,874.291 332.069,900.301C307.535,916.547 285.549,936.449 263.629,956.285C220.046,996.679 177.817,1039.24 142.257,1086.76C125.487,1110.19 109.367,1133.48 107.222,1162.04C100.787,1232.75 158.044,1282.92 227.244,1276.36C305.945,1269.02 367.501,1211.59 416.033,1153.05C419.864,1147.86 428.014,1152.87 425.153,1158.61C410.913,1186.32 391.162,1210.35 368.699,1231.74C315.878,1280.59 237.338,1316.33 164.942,1290.79C103.946,1268.93 71.769,1201.48 88.026,1139.66C107.109,1074.47 198.566,987.198 248.977,940.244C271.712,919.83 294.668,899.253 320.462,882.368C346.586,865.55 375.283,852.696 404.853,843.516C424.786,837.311 444.736,832.505 465.548,829.806C479.655,828.649 482.047,849.124 467.819,851.051Z" style="fill:rgb(55,26,69);fill-rule:nonzero;"/>
    <path d="M1030.29,546.218C1015.6,620.098 982.155,690.732 930.55,750.703C920.021,762.931 908.787,774.695 896.794,785.948C890.974,791.441 884.915,796.808 878.717,802.103C859.941,817.963 840.256,832.047 819.823,844.383C802.24,855.057 784.079,864.412 765.562,872.496C743.208,882.266 720.258,890.127 696.971,896.156C688.471,898.325 679.942,900.265 671.382,901.981C514.616,933.045 346.177,882.049 235.088,754.046C71.399,565.512 94.21,281.358 285.958,119.363C322.907,88.189 363.441,63.732 405.98,46.081C410.931,43.972 415.961,41.995 421.033,40.127C434.55,35.037 448.23,30.608 462.048,26.849C493.997,18.163 526.652,13.012 559.342,11.322C592.027,9.596 624.831,11.344 657.058,16.506C667.304,18.141 677.496,20.108 687.646,22.447C702.844,25.957 717.873,30.193 732.721,35.273C806.716,60.354 875.066,104.607 929.58,167.425C1023.75,275.871 1056.18,415.944 1030.29,546.218Z" style="fill:white;fill-rule:nonzero;"/>
    <path d="M583.726,11.755C575.606,11.755 567.498,11.968 559.402,12.396C526.555,14.093 493.895,19.306 462.325,27.886C448.597,31.623 434.827,36.081 421.406,41.133C416.015,43.123 411.106,45.064 406.395,47.07C363.188,65 322.907,89.598 286.651,120.184C193.76,198.661 137.488,308.018 128.206,428.106C118.997,547.242 157.243,662.746 235.9,753.336C342.707,876.411 509.484,932.967 671.177,900.927C679.695,899.223 688.285,897.265 696.706,895.114C720.18,889.037 743.202,881.091 765.134,871.508C783.874,863.328 802.084,853.895 819.263,843.462C839.792,831.065 859.561,816.879 878.018,801.284C884.813,795.483 890.716,790.212 896.053,785.171C907.775,774.171 919.105,762.341 929.737,750.004C979.884,691.714 1014.29,621.176 1029.24,546.007C1056.18,410.421 1019.56,272.691 928.773,168.131C876.277,107.637 808.366,62.049 732.378,36.291C717.987,31.367 702.856,27.062 687.405,23.494C677.466,21.205 667.196,19.21 656.883,17.567C632.734,13.698 608.218,11.755 583.726,11.755ZM581.292,911.902C449.193,911.902 321.733,855.521 234.279,754.751C155.237,663.716 116.808,547.652 126.061,427.943C135.391,307.273 191.931,197.393 285.266,118.542C321.691,87.812 362.164,63.098 405.564,45.088C410.299,43.071 415.238,41.118 420.653,39.119C434.134,34.045 447.965,29.567 461.765,25.811C493.479,17.191 526.29,11.955 559.288,10.248C591.978,8.527 624.922,10.269 657.227,15.444C667.587,17.096 677.9,19.099 687.887,21.399C703.41,24.983 718.608,29.308 733.071,34.256C809.414,60.134 877.65,105.941 930.394,166.721C1021.62,271.786 1058.42,410.186 1031.34,546.429C1016.33,621.959 981.757,692.84 931.363,751.402C920.689,763.805 909.305,775.689 897.529,786.737C892.161,791.803 886.234,797.097 879.415,802.922C860.863,818.596 841.002,832.854 820.377,845.305C803.12,855.78 784.82,865.261 765.99,873.477C743.961,883.109 720.83,891.085 697.242,897.193C688.785,899.355 680.153,901.319 671.593,903.036C641.535,908.993 611.29,911.902 581.292,911.902Z" style="fill:rgb(55,26,69);fill-rule:nonzero;"/>
    <path d="M235.087,754.034C346.171,882.055 514.628,933.057 671.388,901.969C679.954,900.265 688.477,898.325 696.965,896.15C720.252,890.133 743.196,882.254 765.556,872.502C784.067,864.406 802.24,855.063 819.811,844.395C840.262,832.059 859.935,817.975 878.729,802.115C884.903,796.802 890.968,791.447 896.806,785.966C908.799,774.701 920.009,762.913 930.544,750.697C982.149,690.72 1015.62,620.104 1030.29,546.206C1038.37,505.619 1040.78,464.055 1037.41,422.811C1021.77,493.005 989.052,559.904 939.821,617.122C929.309,629.369 918.069,641.127 906.076,652.391C900.269,657.879 894.209,663.228 887.999,668.541C869.211,684.401 849.538,698.478 829.118,710.821C811.517,721.482 793.373,730.831 774.863,738.927C752.503,748.679 729.529,756.552 706.265,762.576C697.754,764.75 689.23,766.69 680.665,768.395C523.905,799.483 355.471,748.487 244.362,620.46C179.524,545.79 143.982,456.116 136.576,364.996C106.83,498.155 138.462,642.759 235.087,754.034Z" style="fill:rgb(232,232,232);fill-rule:nonzero;"/>
    <path d="M1030.29,546.218L1030.32,546.218L1030.29,546.218ZM583.726,18.959C575.732,18.959 567.751,19.169 559.782,19.591C527.441,21.263 495.293,26.394 464.216,34.839C450.705,38.518 437.158,42.903 423.948,47.877C418.623,49.842 413.823,51.74 409.22,53.699C366.639,71.372 326.985,95.583 291.295,125.691C199.894,202.912 144.524,310.51 135.388,428.666C126.328,545.857 163.956,659.487 241.34,748.613C346.466,869.743 510.629,925.395 669.774,893.862C678.159,892.181 686.628,890.253 694.923,888.133C718.005,882.151 740.666,874.339 762.249,864.906C780.694,856.852 798.62,847.57 815.522,837.305C835.744,825.095 855.2,811.127 873.368,795.778C880.042,790.086 885.854,784.893 891.107,779.93C902.661,769.093 913.817,757.444 924.274,745.3C973.619,687.955 1007.47,618.556 1022.16,544.604C1048.67,411.216 1012.65,275.721 923.334,172.855C871.675,113.325 804.836,68.463 730.065,43.115C715.885,38.264 700.995,34.026 685.785,30.514C676.008,28.264 665.901,26.301 655.751,24.682C631.975,20.875 607.839,18.959 583.726,18.959ZM581.304,919.107C447.133,919.107 317.667,861.828 228.835,759.474C148.525,666.974 109.473,549.037 118.879,427.389C128.356,304.78 185.794,193.142 280.615,113.038C317.607,81.826 358.718,56.728 402.805,38.433C407.588,36.395 412.636,34.4 418.16,32.359C431.809,27.223 445.856,22.674 459.873,18.858C492.082,10.103 525.405,4.786 558.914,3.052C592.105,1.3 625.56,3.076 658.365,8.329C668.882,10.006 679.358,12.042 689.501,14.377C705.271,18.018 720.71,22.412 735.402,27.439C812.938,53.721 882.252,100.254 935.839,161.999C1028.54,268.755 1065.92,409.385 1038.41,547.832C1023.16,624.58 988.028,696.599 936.827,756.106C925.984,768.696 914.419,780.773 902.456,791.989C897.022,797.122 891.005,802.495 884.09,808.404C865.224,824.342 845.05,838.823 824.1,851.473C806.583,862.111 787.994,871.737 768.875,880.085C746.497,889.862 722.999,897.964 699.049,904.168C690.447,906.367 681.695,908.36 673.009,910.101C642.481,916.149 611.766,919.107 581.304,919.107Z" style="fill:rgb(55,26,69);fill-rule:nonzero;"/>
    <path d="M1030.29,546.218L1030.32,546.218L1030.29,546.218ZM583.726,21.361C575.781,21.361 567.835,21.571 559.908,21.99C527.73,23.654 495.756,28.757 464.849,37.156C451.41,40.815 437.929,45.179 424.792,50.126C419.491,52.08 414.726,53.965 410.16,55.908C367.784,73.494 328.347,97.578 292.843,127.528C201.939,204.327 146.868,311.34 137.785,428.847C128.773,545.399 166.194,658.403 243.155,747.041C347.713,867.514 510.996,922.878 669.304,891.506C677.647,889.832 686.068,887.916 694.326,885.802C717.282,879.862 739.817,872.086 761.285,862.707C779.639,854.696 797.463,845.461 814.275,835.251C834.395,823.108 853.749,809.211 871.82,793.947C878.452,788.285 884.234,783.117 889.456,778.183C900.956,767.395 912.051,755.817 922.454,743.734C971.523,686.708 1005.19,617.677 1019.81,544.134C1046.17,411.481 1010.35,276.73 921.515,174.429C870.133,115.22 803.668,70.6 729.294,45.39C715.186,40.562 700.374,36.348 685.243,32.855C675.52,30.616 665.467,28.664 655.371,27.054C631.722,23.266 607.712,21.361 583.726,21.361ZM581.304,921.504C446.435,921.504 316.318,863.942 227.022,761.046C146.286,668.059 107.029,549.495 116.481,427.202C126.011,303.949 183.749,191.725 279.061,111.202C316.251,79.832 357.568,54.604 401.884,36.215C406.678,34.17 411.762,32.16 417.328,30.106C431.032,24.948 445.152,20.375 459.241,16.542C491.618,7.741 525.11,2.396 558.794,0.654C592.159,-1.101 625.777,0.679 658.745,5.958C669.31,7.642 679.845,9.689 690.043,12.037C705.892,15.696 721.409,20.112 736.179,25.166C814.113,51.583 883.789,98.358 937.652,160.424C1030.84,267.745 1068.43,409.119 1040.77,548.302C1025.43,625.453 990.118,697.852 938.646,757.673C927.743,770.328 916.123,782.466 904.1,793.742C898.642,798.898 892.595,804.296 885.65,810.229C866.675,826.258 846.4,840.811 825.341,853.527C807.74,864.213 789.054,873.899 769.839,882.284C747.341,892.115 723.728,900.259 699.651,906.493C691.001,908.704 682.207,910.71 673.484,912.457C642.8,918.534 611.917,921.504 581.304,921.504Z" style="fill:rgb(55,26,69);fill-rule:nonzero;"/>
    <path d="M993.244,655.74C793.687,910.89 406.678,893.735 292.157,596.19C214.246,393.759 355.393,161.597 557.65,99.624C704.85,54.519 868.362,73.903 1001.06,279.767C1001.06,279.767 1045.51,379.893 1038.86,457.827C1032.22,535.761 1012.42,610.502 1012.42,610.502L993.244,655.74Z" style="fill:rgb(55,26,69);fill-rule:nonzero;"/>
    <path d="M292.169,596.19C406.678,893.729 793.699,910.878 993.25,655.752L997.13,646.572C731.896,783.388 399.444,704.893 277.971,406.198C264.93,468.422 268.14,533.713 292.169,596.19Z" style="fill:rgb(34,15,45);fill-rule:nonzero;"/>
    <path d="M1030.29,546.218L1030.32,546.218L1030.29,546.218ZM686.49,43.177C642.74,43.177 596.604,50.541 548.777,65.198C433.014,100.669 331.015,189.406 275.929,302.57C226.673,403.764 220.023,512.696 257.207,609.304C297.939,715.091 371.585,793.544 470.192,836.173C575.269,881.603 700.91,881.091 815.016,834.806C834.852,822.776 853.959,809.03 871.82,793.947C878.452,788.285 884.234,783.117 889.456,778.183C900.956,767.395 912.051,755.817 922.454,743.734C971.523,686.708 1005.19,617.677 1019.81,544.134C1046.17,411.481 1010.35,276.73 921.515,174.429C870.374,115.495 804.288,71.018 730.336,45.745C716.018,44.032 701.386,43.177 686.49,43.177ZM637.421,891.241C576.329,891.241 516.405,879.429 461.717,855.786C357.718,810.825 280.109,728.247 237.269,616.978C197.932,514.781 204.841,399.801 256.719,293.218C314.354,174.824 421.196,81.947 542.518,44.771C609.941,24.112 674.376,17.35 734.022,24.67L735.113,24.804L736.149,25.156C814.113,51.583 883.789,98.358 937.652,160.424C1030.84,267.745 1068.43,409.119 1040.77,548.302C1025.43,625.453 990.118,697.852 938.646,757.673C927.743,770.328 916.123,782.466 904.1,793.742C898.642,798.898 892.595,804.296 885.65,810.229C866.675,826.258 846.4,840.811 825.341,853.527L823.853,854.274C763.424,878.911 699.814,891.241 637.421,891.241Z" style="fill:rgb(55,26,69);fill-rule:nonzero;"/>
    <path d="M993.244,655.74L993.275,655.74L993.244,655.74ZM681.888,88.803C643.179,88.803 602.64,95.278 560.294,108.252C457.181,139.848 366.326,218.884 317.257,319.677C273.375,409.824 267.454,506.871 300.578,592.95C348.863,718.398 451.284,801.501 581.581,820.951C730.914,843.239 885.517,778.177 985.408,651.114L1003.85,607.587C1005.73,600.335 1023.69,529.617 1029.87,457.062C1035.97,385.489 996.738,292.512 993.082,284.043C909.148,154.137 804.812,88.803 681.888,88.803ZM639.945,843.317C619.597,843.317 599.219,841.829 578.919,838.799C442.013,818.367 334.419,731.12 283.736,599.431C248.79,508.63 254.93,406.475 301.029,311.777C352.249,206.566 447.188,124.032 555.005,90.996C740.696,34.091 893.324,95.968 1008.65,274.877L1009.32,276.107C1011.17,280.281 1054.61,379.26 1047.86,458.592C1041.22,536.417 1021.35,612.057 1021.15,612.81L1020.72,614.02L1001.09,660.36L1000.35,661.3C910.01,776.816 776.031,843.317 639.945,843.317Z" style="fill:rgb(55,26,69);fill-rule:nonzero;"/>
    <path d="M92.934,637.458C114.482,723.585 184.164,783.08 248.592,770.328C313.023,757.57 347.779,677.401 326.226,591.269C326.106,590.727 325.943,590.161 325.793,589.625C303.788,504.378 234.545,445.731 170.571,458.399C120.799,468.254 88.738,518.34 86.649,580.312C86.044,598.564 88.035,617.869 92.934,637.458Z" style="fill:white;fill-rule:nonzero;"/>
    <path d="M92.934,637.458C114.482,723.585 184.164,783.08 248.592,770.328C313.023,757.57 347.779,677.401 326.226,591.269C326.106,590.727 325.943,590.161 325.793,589.625C320.92,599.865 312.071,610.75 296.403,610.774C268.954,610.804 208.152,564.711 208.152,564.711C208.152,564.711 155.418,571.138 86.649,580.312C86.044,598.564 88.035,617.869 92.934,637.458Z" style="fill:rgb(232,232,232);fill-rule:nonzero;"/>
    <path d="M188.344,467.35C183.083,467.35 177.842,467.85 172.631,468.88C150.405,473.283 131.481,486.927 117.907,508.341C97.126,541.11 91.663,588.408 103.287,634.868C121.652,708.291 176.664,761.365 230.8,761.371C236.061,761.371 241.305,760.871 246.517,759.841C268.737,755.438 287.663,741.794 301.24,720.386C322.016,687.617 327.485,640.314 315.86,593.853C297.494,520.431 242.483,467.35 188.344,467.35ZM231.185,782.695C167.34,782.701 103.321,723.018 82.559,640.049C69.349,587.251 75.655,535.074 99.861,496.896C116.646,470.428 140.376,453.49 168.483,447.924C238.274,434.1 313.715,497.24 336.587,588.673C349.797,641.47 343.49,693.647 319.281,731.825C302.499,758.299 278.771,775.232 250.664,780.797C244.211,782.074 237.692,782.695 231.185,782.695Z" style="fill:rgb(55,26,69);fill-rule:nonzero;"/>
    <path d="M86.173,650.168C104.02,720.326 157.991,769.696 206.722,760.438C255.454,751.185 280.488,686.81 262.641,616.659C244.796,546.501 190.825,497.131 142.094,506.384C93.363,515.636 68.326,580.011 86.173,650.168Z" style="fill:white;fill-rule:nonzero;"/>
    <path d="M206.735,760.438C157.985,769.696 104.028,720.332 86.176,650.156C84.222,642.542 82.817,634.983 81.857,627.58C106.78,672.745 147.738,700.339 185.625,693.105C228.409,684.931 253.243,634.965 247.186,575.891C253.647,588.347 258.93,602.051 262.653,616.641C280.5,686.816 255.454,751.179 206.735,760.438Z" style="fill:rgb(232,232,232);fill-rule:nonzero;"/>
    <path d="M96.524,647.536C112.977,712.206 161.474,758.136 204.729,749.944C219.649,747.113 232.498,737.819 241.887,723.079C258.352,697.213 262.243,658.415 252.291,619.291C235.835,554.615 187.304,508.685 144.086,516.877C129.167,519.714 116.318,529.002 106.929,543.748C90.461,569.608 86.571,608.406 96.524,647.536ZM195.085,772.208C144.956,772.208 93.404,721.922 75.82,652.801C64.44,608.069 69.334,563.012 88.907,532.273C101.542,512.431 119.243,499.854 140.103,495.89C194.195,485.614 253.816,538.616 272.995,614.02C284.374,658.752 279.483,703.809 259.906,734.554C247.274,754.396 229.573,766.973 208.713,770.937C204.201,771.792 199.651,772.208 195.085,772.208Z" style="fill:rgb(55,26,69);fill-rule:nonzero;"/>
    <path d="M951.163,528.804C951.163,528.804 955.392,486.457 931.628,405.547C923.798,378.947 913.738,349.117 890.836,310.66C873.512,281.578 836.816,236.672 806.933,220.261C806.782,220.18 806.631,220.098 806.481,220.016C754.948,191.777 697.471,182.78 645.125,182.78C553.162,182.78 477.071,210.557 477.071,210.557C468.927,204.836 563.203,125.583 701.013,125.583C719.716,125.583 739.251,127.046 759.412,130.351C849.628,145.136 909.287,215.882 943.718,273.382C955.145,292.44 963.777,310.052 969.831,323.681C969.885,323.714 969.909,323.745 969.879,323.77C970.505,325.339 971.107,326.905 971.674,328.498C974.168,335.401 976.384,342.197 978.282,348.854C997.401,416.444 985.329,472.573 951.163,528.804Z" style="fill:rgb(155,141,162);fill-rule:nonzero;"/>
    <path d="M400.86,539.604C367.729,539.604 340.454,509.148 339.671,470.922C338.876,432.22 365.549,400.205 399.245,399.421C399.661,399.409 400.083,399.409 400.504,399.409C433.634,399.409 460.909,429.865 461.693,468.085C462.488,506.793 435.815,538.809 402.119,539.592C401.703,539.598 401.281,539.604 400.86,539.604Z" style="fill:rgb(155,141,162);fill-rule:nonzero;"/>
    <path d="M426.436,607.756C413.232,597.275 400.522,586.01 388.336,573.939C392.685,570.15 398.083,567.909 403.841,567.909C404.287,567.909 404.733,567.921 405.185,567.945C419.069,568.783 429.484,582.396 428.442,598.353C428.225,601.678 427.526,604.84 426.436,607.756Z" style="fill:rgb(155,141,162);fill-rule:nonzero;"/>
    <path d="M402.751,625.779C402.305,625.779 401.86,625.76 401.408,625.736C387.523,624.899 377.108,611.286 378.15,595.329C378.723,586.564 382.632,578.914 388.336,573.939C400.522,586.01 413.232,597.275 426.436,607.756C422.454,618.4 413.202,625.779 402.751,625.779Z" style="fill:rgb(145,135,150);fill-rule:nonzero;"/>
    <path d="M1154.56,1087.59C1153.64,1087.59 1152.7,1087.47 1151.76,1087.22C1096.55,1072.24 1058.41,1026.71 1041.48,955.55C1029.04,903.246 1032.31,855.936 1032.46,853.949C1032.89,848.064 1038,843.654 1043.89,844.076C1049.77,844.504 1054.19,849.618 1053.77,855.497C1053.64,857.292 1042.16,1035.35 1157.35,1066.6C1163.05,1068.14 1166.41,1074.01 1164.87,1079.7C1163.57,1084.46 1159.26,1087.59 1154.56,1087.59Z" style="fill:rgb(55,26,69);fill-rule:nonzero;"/>
    <path d="M212.743,1298.75C207.247,1298.75 202.576,1294.54 202.109,1288.97C201.616,1283.09 205.984,1277.92 211.862,1277.42C254.756,1273.83 285.778,1258.42 304.077,1231.65C340.256,1178.71 316.721,1097.29 316.48,1096.47C314.8,1090.82 318.022,1084.88 323.672,1083.2C329.317,1081.52 335.268,1084.73 336.955,1090.38C338.063,1094.09 363.67,1182.2 321.775,1243.61C299.686,1276.02 263.303,1294.55 213.648,1298.72C213.345,1298.74 213.042,1298.75 212.743,1298.75Z" style="fill:rgb(55,26,69);fill-rule:nonzero;"/>
    <path d="M62.65,1106.45C69.14,1104.39 76.27,1100.84 83.828,1095.58C83,1138.87 113.872,1159.86 155.746,1165.04L252.688,1165.04C252.688,1165.04 335.557,1137 342.792,1064.68C342.846,1064.36 342.87,1064.01 342.9,1063.66C348.508,1001.6 290.958,980.367 273.465,975.404C270.338,974.494 268.496,974.121 268.496,974.121C268.496,974.121 261.34,964.64 250.364,951.713C227.664,925.112 188.621,884.043 161.915,881.453C123.673,877.712 120.041,908.559 135.69,936.467C137.72,940.099 140.097,943.677 142.74,947.123C141.833,947.201 140.925,947.309 139.989,947.388C108.557,950.647 58.965,961.194 65.775,1000.26C65.855,1000.75 65.935,1001.25 66.042,1001.76C68.579,1014.1 77.793,1019.09 89.463,1020.77C74.481,1026.12 62.383,1032.47 52.823,1039.29C4.833,1073.52 21.39,1119.56 62.65,1106.45Z" style="fill:white;fill-rule:nonzero;"/>
    <path d="M62.65,1106.45C69.14,1104.39 76.27,1100.84 83.828,1095.58C83,1138.87 113.872,1159.86 155.746,1165.04L252.688,1165.04C252.688,1165.04 335.557,1137 342.792,1064.68C325.329,1073.44 302.867,1078.11 277.899,1067.43C233.593,1048.5 262.008,1006.25 273.465,975.404C270.338,974.494 268.496,974.121 268.496,974.121C268.496,974.121 261.34,964.64 250.364,951.713C237.011,964.049 217.223,975.856 191.799,973.289C158.417,969.928 134.542,932.943 132.058,928.985C132.566,929.925 133.981,932.648 135.69,936.467C137.052,939.509 138.574,943.25 139.989,947.388C144.797,961.381 148.135,979.837 137.907,990.168C123.539,1004.7 86.097,1001.98 65.775,1000.26C65.855,1000.75 65.935,1001.25 66.042,1001.76C68.579,1014.1 77.793,1019.09 89.463,1020.77C74.481,1026.12 62.383,1032.47 52.823,1039.29C56.588,1062.78 64.065,1089.22 62.65,1106.45Z" style="fill:rgb(232,232,232);fill-rule:nonzero;"/>
    <path d="M250.987,1159.99C278.681,1144.28 305.499,1125.18 320.95,1097.44C348.424,1043.04 321.377,999.691 265.375,984.313C263.092,983.716 261.219,982.325 259.966,980.536C248.278,965.356 235.481,950.351 222.177,936.401C209.155,922.92 195.018,909.354 179.346,899.56C169.636,893.066 157.198,889.579 146.194,893.283C128.19,900.71 142.585,929.787 151.212,940.605C156.412,946.99 151.846,957.188 143.743,957.754C132.583,958.815 121.539,960.483 111.132,963.308C93.548,968.236 72.762,977.103 76.204,997.734C76.852,1002.3 78.02,1004.42 80.2,1006.27C82.357,1008.12 86.264,1009.56 90.982,1010.19C96.817,1010.98 100.91,1016.35 100.121,1022.19C99.563,1026.3 96.73,1029.56 93.053,1030.83C80.145,1035.45 67.799,1041.42 57.289,1049.24C47.612,1056.49 38.456,1066.24 35.199,1077.57C32.617,1087.11 35.032,1095.81 45.137,1097.72C56.021,1099.5 68.298,1093.33 77.71,1086.82C84.574,1081.77 94.852,1087.41 94.5,1095.79C95.649,1134.4 122.732,1149.68 156.491,1159.78C162.214,1161.52 161.017,1170.15 155.092,1170.35C110.284,1172.71 69.103,1143.54 73.138,1095.39L89.926,1104.35C72.591,1116.51 47.19,1126.52 27.07,1112.89C5.233,1097.55 11.726,1066.29 26.81,1048.96C41.966,1030.27 64.104,1018.56 85.897,1010.7L87.97,1031.35C77.579,1030.39 63.237,1023.7 58.431,1012.38C50.149,994.908 55.062,972.049 70.056,959.971C90.177,943.256 116.947,939.22 141.749,936.479L134.279,953.628C115.896,931.19 103.884,886.549 138.865,873.212C156.612,867.044 175.436,871.556 190.505,881.344C225.2,904.042 251.485,935.611 277.037,967.682L270.627,963.646C274.14,964.314 276.718,965.031 279.964,965.941C329.196,980.211 363.272,1019.89 353.267,1073.06C347.948,1103.87 328.317,1130.75 302.909,1148.25C288.133,1158.45 272.013,1166.12 254.412,1170.11C251.511,1170.73 248.659,1168.87 248.042,1165.97C247.506,1163.48 248.809,1161.05 250.987,1159.99Z" style="fill:rgb(55,26,69);fill-rule:nonzero;"/>
    <path d="M188.157,1003.37C167.26,990.222 147.672,974.392 134.127,953.43C127.77,942.376 142.398,931.485 151.161,940.587C158.959,948.918 166.521,957.971 173.836,966.965C181.23,976.163 188.739,985.493 195.464,995.589C198.712,1000.29 192.978,1006.31 188.157,1003.37Z" style="fill:rgb(55,26,69);fill-rule:nonzero;"/>
    <path d="M89.476,1020.77C89.476,1020.77 67.065,1065.74 91.308,1093.03C103.476,1106.74 130.653,1101.83 140.688,1083.7C154.288,1059.13 147.297,1029.16 151.149,1020" style="fill:white;fill-rule:nonzero;"/>
    <path d="M85.457,1084.52C86.979,1087.49 88.929,1090.34 91.305,1093.04C103.483,1106.74 130.642,1101.83 140.684,1083.69C154.277,1059.13 147.307,1029.16 151.153,1020L131.871,1020.24C131.791,1033.59 131.738,1052.05 122.818,1068.18C115.394,1081.58 98.622,1087.75 85.457,1084.52Z" style="fill:rgb(232,232,232);fill-rule:nonzero;"/>
    <path d="M110.431,1111.59C99.591,1111.59 89.897,1107.53 83.32,1100.13C54.617,1067.81 78.869,1018.11 79.915,1016C82.547,1010.72 88.96,1008.58 94.241,1011.21C99.515,1013.84 101.665,1020.24 99.048,1025.52C98.857,1025.9 80.197,1064.44 99.294,1085.94C102.199,1089.21 107.199,1090.71 113.048,1090.07C120.871,1089.2 127.883,1084.78 131.34,1078.53C138.901,1064.87 138.989,1048.8 139.06,1035.89C139.107,1027.57 139.142,1020.99 141.298,1015.85C143.584,1010.42 149.844,1007.85 155.287,1010.15C160.725,1012.43 163.28,1018.69 160.995,1024.13C160.481,1025.69 160.449,1031.66 160.425,1036.01C160.349,1049.72 160.237,1070.44 150.035,1088.88C143.273,1101.09 130.001,1109.69 115.401,1111.3C113.724,1111.49 112.064,1111.59 110.431,1111.59Z" style="fill:rgb(55,26,69);fill-rule:nonzero;"/>
    <path d="M164.909,1027.88C155.165,1028.08 147.056,1024.92 138.367,1024.06C138.334,1024.19 138.957,1024.05 138.287,1024.23C137.237,1024.53 133.386,1025.75 132.274,1026.1C118.884,1030.62 103.301,1033.8 88.708,1031.42C82.861,1030.52 78.852,1025.05 79.752,1019.2C80.558,1013.93 85.102,1010.17 90.243,1010.11C96.036,1009.82 101.778,1009.22 107.659,1008.16C117.895,1006.78 128.599,1001.87 139.504,1001.94C151.602,1003.58 161.634,1009.29 169.634,1018.3C173,1021.99 169.812,1028.29 164.909,1027.88Z" style="fill:rgb(55,26,69);fill-rule:nonzero;"/>
    <path d="M325.883,1057.14C323.859,1075.61 306.403,1109.38 278.38,1109.09C239.385,1108.68 239.78,1062.88 267.845,1016.5" style="fill:white;fill-rule:nonzero;"/>
    <path d="M331.196,1057.72C330.353,1084.64 312.95,1114.31 284.284,1119.06C261.611,1122.54 240.835,1109.07 238.117,1085.7C235.114,1058.93 247.669,1033.53 263.273,1013.73C267.207,1008.9 274.875,1013.59 272.411,1019.26C266.448,1033.64 261.231,1048.09 258.99,1062.32C257.37,1073.66 256.798,1088.61 266.062,1095.21C276.025,1101.15 288.542,1099.2 297.855,1091.55C308.318,1083.11 316.667,1069.58 320.576,1056.56C322.016,1050.39 331.16,1051.43 331.196,1057.72Z" style="fill:rgb(55,26,69);fill-rule:nonzero;"/>
    <path d="M578.232,1222.07C578.232,1222.07 452.639,1248.41 380.433,1234.36C380.433,1234.36 326.769,1273.53 386.68,1315.72C498.684,1341 595.568,1306.55 595.568,1306.55L578.232,1222.07Z" style="fill:white;fill-rule:nonzero;"/>
    <path d="M386.668,1315.71C498.672,1341 595.562,1306.56 595.562,1306.56L588.135,1270.39L578.232,1222.09C578.232,1222.09 480.517,1242.57 407.901,1237.76C398.209,1237.12 388.969,1236.02 380.445,1234.37C380.445,1234.37 326.769,1273.52 386.668,1315.71Z" style="fill:white;fill-rule:nonzero;"/>
    <path d="M386.668,1315.71C498.672,1341 595.562,1306.56 595.562,1306.56L588.135,1270.39C549.789,1282.31 471.336,1293.95 431.894,1282.31C407.829,1275.18 403.763,1254.1 407.901,1237.76C398.209,1237.12 388.969,1236.02 380.445,1234.37C380.445,1234.37 326.769,1273.52 386.668,1315.71Z" style="fill:rgb(232,232,232);fill-rule:nonzero;"/>
    <path d="M391.131,1305.77C478.746,1324.98 557.403,1306.56 583.154,1299.21L569.902,1234.6C538.609,1240.48 445.573,1256.03 383.487,1245.76C378.331,1250.55 368.862,1261.06 369.019,1273.5C369.151,1284.28 376.584,1295.13 391.131,1305.77ZM472.451,1335.75C445.374,1335.75 415.485,1333.17 384.325,1326.14C382.963,1325.83 381.674,1325.26 380.53,1324.45C358.869,1309.2 347.809,1292.09 347.653,1273.59C347.412,1245.56 373.048,1226.53 374.139,1225.73C376.536,1223.98 379.56,1223.31 382.475,1223.87C451.711,1237.35 574.805,1211.88 576.04,1211.62C578.823,1211.04 581.72,1211.59 584.093,1213.14C586.467,1214.7 588.129,1217.14 588.695,1219.92L606.032,1304.4C607.104,1309.62 604.164,1314.83 599.146,1316.61C596.189,1317.66 544.217,1335.75 472.451,1335.75Z" style="fill:rgb(55,26,69);fill-rule:nonzero;"/>
    <path d="M907.364,1266.35C907.364,1266.35 947.651,1263.92 978.095,1236.26C1008.53,1208.6 1002.16,1153.53 965.361,1140.92C965.361,1140.92 907.364,1161.25 859.465,1165.93C835.28,1168.29 907.364,1266.35 907.364,1266.35Z" style="fill:white;fill-rule:nonzero;"/>
    <path d="M907.377,1266.36C907.377,1266.36 947.651,1263.93 978.095,1236.26C997.72,1218.42 1002.05,1189.21 992.781,1167.31C989.66,1180.85 982.101,1193.64 970.162,1202.4C937.02,1226.75 896.697,1224.96 896.697,1224.96C896.697,1224.96 878.349,1193.64 865.663,1165.23C863.579,1165.49 861.525,1165.73 859.465,1165.92C835.274,1168.3 907.377,1266.36 907.377,1266.36Z" style="fill:rgb(232,232,232);fill-rule:nonzero;"/>
    <path d="M865.681,1176C869.235,1189.78 890.71,1224.98 912.317,1255C923.689,1253.23 950.109,1247.26 970.909,1228.36C983.54,1216.88 989.341,1198.05 985.697,1180.38C982.968,1167.18 975.541,1157.13 965.084,1152.3C951.741,1156.76 906.479,1171.21 865.681,1176ZM907.364,1277.03C903.98,1277.03 900.781,1275.42 898.757,1272.68C898.143,1271.84 883.463,1251.83 869.434,1229.42C842.213,1185.93 841.78,1172.49 845.376,1164.44C847.713,1159.21 852.465,1155.88 858.429,1155.29C904.45,1150.8 961.265,1131.04 961.831,1130.84C964.09,1130.05 966.56,1130.04 968.825,1130.81C987.992,1137.38 1002.12,1154.29 1006.62,1176.06C1011.84,1201.36 1003.67,1227.46 985.281,1244.17C952.434,1274.02 909.804,1276.91 908.01,1277.02C907.793,1277.03 907.576,1277.03 907.364,1277.03Z" style="fill:rgb(55,26,69);fill-rule:nonzero;"/>
    <path d="M1270.62,758.793C1270.62,758.793 1323.91,741.475 1347.23,776.78C1370.54,812.09 1358.89,861.081 1328.12,868.321C1294.14,876.321 1282.15,847.823 1289.31,823.084C1289.31,823.084 1244.64,877.043 1206.66,866.719" style="fill:white;fill-rule:nonzero;"/>
    <path d="M1268.96,753.715C1296.78,738.258 1336.63,741.836 1355.98,769.678C1383.32,805.856 1374.9,878.049 1320.7,881.356C1286.04,884.127 1268.99,850.208 1279.06,820.114L1297.54,829.896L1297.54,829.902C1278.22,855.117 1238.43,884.302 1205.26,871.869C1199.49,869.442 1201.88,860.719 1208.06,861.563C1230.56,863.069 1248.88,846.359 1264.69,832.143C1269.51,827.643 1276.31,820.975 1281.09,816.271C1283.94,811.313 1290.28,809.615 1295.23,812.47C1300.18,815.265 1301.39,821.108 1299.57,826.053C1296.91,837.715 1298.22,851.112 1308.66,856.322C1318.65,860.286 1332.41,856.762 1338.92,847.359C1352.12,829.228 1349.71,800.923 1337.42,782.43C1323.64,761.714 1295.09,763.678 1272.27,763.877C1266.4,764.54 1263.85,756.54 1268.96,753.715Z" style="fill:rgb(55,26,69);fill-rule:nonzero;"/>
    <path d="M214.626,987.975L214.626,1681.58L214.626,987.975Z" style="fill:white;fill-rule:nonzero;"/>
    <path d="M214.626,1689.59C210.202,1689.59 206.616,1686.01 206.616,1681.58L206.616,987.975C206.616,983.554 210.202,979.964 214.626,979.964C219.05,979.964 222.636,983.554 222.636,987.975L222.636,1681.58C222.636,1686.01 219.05,1689.59 214.626,1689.59Z" style="fill:rgb(55,26,69);fill-rule:nonzero;"/>
    <path d="M203.746,996.234C194.204,996.234 183.505,994.451 171.623,990.047C167.475,988.511 165.357,983.897 166.896,979.747C168.43,975.597 173.036,973.482 177.193,975.024C226.62,993.33 249.281,957.182 250.217,955.634C252.506,951.863 257.418,950.635 261.207,952.911C264.984,955.182 266.225,960.062 263.972,963.856C263.731,964.254 244.143,996.234 203.746,996.234Z" style="fill:rgb(55,26,69);fill-rule:nonzero;"/>
    <path d="M1302.47,798.314C1302.47,798.314 1295.77,808.56 1289.06,823.999" style="fill:white;fill-rule:nonzero;"/>
    <path d="M1306.94,801.242C1303.6,809.922 1300.88,819.18 1298.86,828.258C1294.05,844.66 1270.73,834.806 1279.14,819.921C1283.45,813.422 1287.99,807.223 1292.94,801.248C1296.08,797.724 1300.25,790.465 1305.63,795.001C1307.43,796.622 1307.86,799.151 1306.94,801.242Z" style="fill:rgb(55,26,69);fill-rule:nonzero;"/>
    <path d="M559.752,1201.27L582.13,1342.18C586.286,1368.33 610.284,1386.45 635.439,1382.46L885.313,1342.77C910.497,1338.77 927.671,1314.11 923.515,1287.95L901.131,1147.04C896.98,1120.92 873.012,1102.79 847.833,1106.79L597.954,1146.48C577.865,1149.67 562.83,1166.07 559.722,1185.86C558.957,1190.83 558.914,1196.01 559.752,1201.27Z" style="fill:white;fill-rule:nonzero;"/>
    <path d="M559.752,1201.27L582.13,1342.18C586.286,1368.33 610.284,1386.45 635.439,1382.46L885.313,1342.77C910.497,1338.77 927.671,1314.11 923.515,1287.95L915.979,1240.53C876.807,1272.15 797.307,1322.93 706.711,1305.84C662.455,1297.48 606.272,1253.67 606.272,1253.67C606.272,1253.67 612.995,1307.94 605.152,1308.31C583.334,1309.35 566.143,1200.1 559.722,1185.86C558.957,1190.83 558.914,1196.01 559.752,1201.27Z" style="fill:rgb(226,226,226);fill-rule:nonzero;"/>
    <path d="M859.808,1116.08C858.242,1116.08 856.67,1116.21 855.104,1116.45L594.056,1157.91C577.72,1160.51 566.546,1175.91 569.137,1192.24L593.852,1347.87C596.454,1364.19 611.838,1375.35 628.181,1372.78L628.187,1372.78L889.228,1331.32C897.095,1330.07 904.034,1325.79 908.757,1319.28C913.485,1312.78 915.401,1304.86 914.147,1296.99L889.427,1141.37C888.18,1133.51 883.909,1126.57 877.397,1121.84C872.187,1118.06 866.079,1116.08 859.808,1116.08ZM623.446,1394.52C598.647,1394.52 576.769,1376.46 572.757,1351.21L548.042,1195.59C543.596,1167.63 562.733,1141.26 590.701,1136.82L851.755,1095.35C865.242,1093.2 878.819,1096.47 889.945,1104.56C901.076,1112.63 908.383,1124.52 910.527,1138.03L935.249,1293.64C937.393,1307.14 934.122,1320.7 926.044,1331.84C917.973,1342.96 906.082,1350.27 892.577,1352.41L631.536,1393.88C628.819,1394.31 626.114,1394.52 623.446,1394.52Z" style="fill:rgb(55,25,68);fill-rule:nonzero;"/>
    <path d="M613.657,1264.94C617.254,1287.58 637.836,1303.12 659.63,1299.66C681.424,1296.19 696.176,1275.05 692.58,1252.41C688.983,1229.78 668.401,1214.24 646.613,1217.7C624.819,1221.16 610.067,1242.31 613.657,1264.94Z" style="fill:rgb(34,167,240);fill-rule:nonzero;"/>
    <path d="M613.651,1264.96C614.097,1267.75 614.784,1270.42 615.718,1272.97C616.386,1253.62 630.09,1236.97 649.197,1233.93C668.298,1230.9 686.496,1242.49 693.092,1260.68C693.194,1257.97 693.019,1255.21 692.58,1252.42C688.983,1229.79 668.407,1214.23 646.619,1217.69C624.825,1221.15 610.055,1242.32 613.651,1264.96Z" style="fill:white;fill-rule:nonzero;"/>
    <path d="M613.657,1264.94C617.26,1287.59 637.848,1303.11 659.624,1299.64C681.406,1296.19 696.176,1275.05 692.58,1252.4C691.971,1248.61 690.881,1244.98 689.399,1241.66C687.508,1259.67 674.237,1274.8 656.136,1277.67C638.035,1280.54 620.729,1270.27 613.35,1253.73C612.977,1257.35 613.055,1261.14 613.657,1264.94Z" style="fill:rgb(28,122,234);fill-rule:nonzero;"/>
    <path d="M621.573,1263.69C622.982,1272.58 627.626,1280.39 634.65,1285.69C641.577,1290.92 649.992,1293.08 658.371,1291.74C666.744,1290.42 674.087,1285.76 679.05,1278.64C684.086,1271.42 686.074,1262.56 684.664,1253.67C683.255,1244.78 678.611,1236.96 671.593,1231.66C664.666,1226.43 656.239,1224.28 647.866,1225.61C630.476,1228.37 618.675,1245.46 621.573,1263.69ZM653.48,1308.16C643.3,1308.16 633.397,1304.83 624.994,1298.48C614.645,1290.67 607.814,1279.21 605.748,1266.2C601.472,1239.24 619.235,1213.93 645.354,1209.78C658.082,1207.78 670.81,1211 681.249,1218.87C691.592,1226.69 698.428,1238.15 700.489,1251.15C702.555,1264.15 699.609,1277.17 692.194,1287.8C684.713,1298.53 673.593,1305.55 660.889,1307.57C658.413,1307.96 655.938,1308.16 653.48,1308.16Z" style="fill:rgb(55,25,68);fill-rule:nonzero;"/>
    <path d="M796.741,1367.5C791.578,1367.5 787.036,1363.76 786.199,1358.5L774.742,1286.37C771.411,1265.39 777.893,1243.78 792.078,1228.54L797.638,1222.57C807.372,1212.11 811.812,1197.18 809.505,1182.65L798.692,1114.59C797.771,1108.77 801.74,1103.3 807.571,1102.37C813.408,1101.44 818.872,1105.42 819.793,1111.24L830.6,1179.3C833.937,1200.27 827.461,1221.89 813.276,1237.13L807.71,1243.1C797.975,1253.56 793.536,1268.49 795.843,1283.03L807.3,1355.15C808.222,1360.97 804.252,1366.44 798.421,1367.37C797.855,1367.46 797.295,1367.5 796.741,1367.5Z" style="fill:rgb(55,25,68);fill-rule:nonzero;"/>
    <path d="M1694.24,1784.2C1730.02,1747.7 1739.09,1713.66 1728.2,1663.94C1764.96,1702.85 1746.13,1770.49 1694.24,1784.2Z" style="fill:rgb(55,26,69);fill-rule:nonzero;"/>
    <path d="M1488.67,1509.33C1457.25,1522.93 1430.66,1541.01 1415.1,1571.72C1409.88,1581.39 1405.82,1592.06 1401.22,1603.88C1382.67,1551.23 1434.68,1494.71 1488.67,1509.33Z" style="fill:rgb(55,26,69);fill-rule:nonzero;"/>
    <path d="M1413.3,1511.47C1401.49,1520.95 1391.45,1529.41 1383.97,1541.74C1376.34,1553.98 1373.29,1566.74 1369.92,1581.53C1349.74,1551.27 1377.17,1506.76 1413.3,1511.47Z" style="fill:rgb(55,26,69);fill-rule:nonzero;"/>
    <path d="M1469.99,1788.13C1500.42,1804.84 1530.92,1816.37 1565.47,1817.88C1576.65,1818.55 1588.08,1818.18 1600.6,1817.76C1560.91,1850.45 1491.75,1834.65 1469.99,1788.13Z" style="fill:rgb(55,26,69);fill-rule:nonzero;"/>
    <path d="M1689.57,1663.87C1689.08,1668.81 1688.29,1673.71 1687.2,1678.53C1685.68,1685.31 1683.58,1691.94 1680.93,1698.35C1669.45,1726.14 1647.68,1749.73 1618.03,1762.89C1588.32,1776.09 1556.13,1776.37 1527.78,1766.18C1521.55,1763.94 1515.51,1761.19 1509.72,1757.96C1505.18,1755.44 1500.8,1752.61 1496.6,1749.51C1526.4,1742.24 1560.88,1730.41 1596.58,1714.57C1632.28,1698.72 1664.18,1681.09 1689.57,1663.87Z" style="fill:rgb(255,178,0);fill-rule:nonzero;"/>
    <path d="M1527.91,1768.21L1527.78,1766.18L1526.84,1764.36L1527.22,1764.17L1527.65,1764.14C1544.06,1763.07 1575.41,1753.17 1607.52,1738.93C1639.8,1724.6 1667.39,1708.48 1679.52,1696.87L1682.35,1699.82C1669.89,1711.74 1641.86,1728.16 1609.18,1742.66C1576.17,1757.31 1545.03,1767.11 1527.91,1768.21Z" style="fill:rgb(214,107,9);fill-rule:nonzero;"/>
    <path d="M1596.58,1714.57C1632.28,1698.72 1664.18,1681.09 1689.57,1663.87C1689.08,1668.81 1688.29,1673.71 1687.2,1678.53C1667.65,1692.52 1636.46,1709.74 1600.17,1725.85C1565.41,1741.28 1533.03,1752.55 1509.72,1757.96C1505.18,1755.44 1500.8,1752.61 1496.6,1749.51C1526.4,1742.24 1560.88,1730.41 1596.58,1714.57Z" style="fill:rgb(214,107,9);fill-rule:nonzero;"/>
    <path d="M1573.83,1756.77C1584.94,1752.87 1596.93,1748.1 1609.18,1742.66C1630.8,1733.07 1650.38,1722.64 1664.76,1713.22C1653.23,1727.06 1638.42,1738.52 1620.85,1746.32C1605.54,1753.12 1589.58,1756.49 1573.83,1756.77ZM1561.96,1756.4C1552.67,1755.64 1543.53,1753.82 1534.72,1751C1554.04,1744.9 1576.56,1736.33 1600.17,1725.85C1631.67,1711.87 1659.32,1697.05 1678.86,1684.24C1676.85,1691.06 1674.23,1697.64 1671.03,1703.91C1656.76,1714.53 1633.68,1727.31 1607.52,1738.93C1591.56,1746.01 1575.8,1752.01 1561.96,1756.4Z" style="fill:rgb(178,128,12);"/>
    <path d="M1571.7,1756.79C1568.44,1756.79 1565.18,1756.65 1561.96,1756.4C1575.8,1752.01 1591.56,1746.01 1607.52,1738.93C1633.68,1727.31 1656.76,1714.53 1671.03,1703.91C1670.3,1705.36 1669.53,1706.79 1668.74,1708.2C1667.46,1709.9 1666.14,1711.59 1664.76,1713.22C1650.38,1722.64 1630.8,1733.07 1609.18,1742.66C1596.93,1748.1 1584.94,1752.87 1573.83,1756.77C1573.12,1756.78 1572.41,1756.79 1571.7,1756.79Z" style="fill:rgb(152,82,18);fill-rule:nonzero;"/>
    <path d="M1534.72,1751C1533.34,1750.57 1531.96,1750.1 1530.6,1749.61C1529.25,1749.12 1527.93,1748.62 1526.6,1748.09C1533.9,1745.84 1541.32,1743.38 1548.83,1740.74L1548.84,1740.74C1548.93,1740.7 1549.02,1740.67 1549.11,1740.64C1549.16,1740.63 1549.2,1740.61 1549.24,1740.6C1549.31,1740.57 1549.38,1740.55 1549.44,1740.52C1549.52,1740.5 1549.58,1740.48 1549.64,1740.45C1549.7,1740.43 1549.75,1740.41 1549.8,1740.4C1549.92,1740.36 1550.04,1740.31 1550.16,1740.27L1550.16,1740.27C1566.02,1734.64 1582.24,1728.18 1598.46,1721.01L1598.47,1721C1598.59,1720.95 1598.72,1720.89 1598.85,1720.83C1598.86,1720.83 1598.87,1720.83 1598.88,1720.82C1599.01,1720.76 1599.15,1720.7 1599.28,1720.64C1599.41,1720.59 1599.54,1720.53 1599.67,1720.47C1599.69,1720.46 1599.71,1720.45 1599.74,1720.44C1599.85,1720.39 1599.96,1720.34 1600.07,1720.29C1600.09,1720.28 1600.12,1720.27 1600.14,1720.26C1600.26,1720.21 1600.36,1720.16 1600.48,1720.11C1600.49,1720.1 1600.51,1720.09 1600.53,1720.09C1616.84,1712.81 1632.63,1705.04 1647.52,1696.98C1647.53,1696.98 1647.53,1696.98 1647.54,1696.98C1647.65,1696.92 1647.75,1696.86 1647.86,1696.8C1647.88,1696.79 1647.91,1696.77 1647.94,1696.76C1648.03,1696.71 1648.13,1696.66 1648.22,1696.61C1648.25,1696.59 1648.27,1696.58 1648.29,1696.57C1648.4,1696.51 1648.5,1696.45 1648.61,1696.4C1648.62,1696.39 1648.64,1696.38 1648.67,1696.36C1648.77,1696.31 1648.88,1696.25 1648.98,1696.19C1649.05,1696.16 1649.11,1696.12 1649.18,1696.09C1649.22,1696.06 1649.26,1696.04 1649.31,1696.01C1649.38,1695.98 1649.45,1695.94 1649.52,1695.9C1649.56,1695.88 1649.61,1695.85 1649.65,1695.83C1649.73,1695.79 1649.79,1695.75 1649.87,1695.71C1649.9,1695.69 1649.93,1695.68 1649.96,1695.66C1650.05,1695.61 1650.13,1695.57 1650.22,1695.52C1650.22,1695.52 1650.23,1695.51 1650.23,1695.51C1660.86,1689.7 1671.02,1683.73 1680.57,1677.7C1680.06,1679.9 1679.49,1682.08 1678.86,1684.24C1659.32,1697.05 1631.67,1711.87 1600.17,1725.85C1576.56,1736.33 1554.04,1744.9 1534.72,1751Z" style="fill:rgb(152,82,18);fill-rule:nonzero;"/>
    <path d="M1685.64,1603.88L1684.23,1602.3C1684.39,1602.14 1684.54,1601.97 1684.7,1601.8C1686.13,1601.7 1687.35,1601.65 1688.38,1601.65L1688.5,1601.65L1688.37,1601.76C1687.5,1602.45 1686.59,1603.15 1685.64,1603.88Z" style="fill:rgb(140,140,178);fill-rule:nonzero;"/>
    <path d="M1679.7,1602.8C1681.77,1607.48 1683.53,1612.22 1684.97,1616.99C1665.13,1632.81 1626,1654.87 1579.29,1675.61C1532.59,1696.33 1489.97,1710.56 1464.92,1714.66C1462.35,1710.39 1460.02,1705.9 1457.95,1701.23C1457.84,1701.01 1457.75,1700.8 1457.66,1700.57C1456.75,1698.51 1455.91,1696.44 1455.14,1694.35C1453.31,1689.47 1451.83,1684.53 1450.66,1679.58C1450.61,1679.38 1450.56,1679.18 1450.52,1678.97C1448.83,1671.6 1447.86,1664.18 1447.57,1656.79C1447.03,1642.73 1448.95,1628.8 1453.1,1615.6C1463.2,1583.56 1486.49,1555.84 1519.61,1541.14C1552.46,1526.56 1588.32,1527.74 1618.69,1541.43C1631.17,1547.05 1642.72,1554.78 1652.75,1564.38C1658.12,1569.52 1663.06,1575.2 1667.47,1581.38C1667.83,1581.87 1668.18,1582.37 1668.53,1582.88C1671.42,1587.07 1674.09,1591.48 1676.48,1596.11C1677.37,1597.82 1678.23,1599.57 1679.04,1601.35C1679.26,1601.83 1679.48,1602.32 1679.7,1602.8Z" style="fill:rgb(255,178,0);fill-rule:nonzero;"/>
    <path d="M1679.04,1601.35C1679.26,1601.83 1679.48,1602.32 1679.7,1602.8C1681.77,1607.48 1683.53,1612.22 1684.97,1616.99C1665.13,1632.81 1626,1654.87 1579.29,1675.61C1532.59,1696.33 1489.97,1710.56 1464.92,1714.66C1462.35,1710.39 1460.02,1705.9 1457.95,1701.23C1457.84,1701.01 1457.75,1700.8 1457.66,1700.57C1481.39,1698.12 1524.77,1684.38 1572.38,1663.25C1621.88,1641.28 1662.38,1617.35 1679.04,1601.35Z" style="fill:rgb(214,107,9);fill-rule:nonzero;"/>
    <path d="M1447.33,1660.87L1447.81,1652.7C1464.34,1653.68 1507.68,1640.25 1553.21,1620.04C1607.53,1595.93 1642.66,1572.69 1649.29,1562.2L1656.21,1566.57C1647.43,1580.46 1607.37,1604.94 1556.52,1627.51C1509.19,1648.52 1465.31,1661.93 1447.33,1660.87Z" style="fill:rgb(214,107,9);fill-rule:nonzero;"/>
    <path d="M1453.67,1619.65L1452.53,1611.55C1471.14,1608.92 1503.47,1598.08 1536.88,1583.25C1571.89,1567.7 1602.2,1550.51 1615.99,1538.37L1621.4,1544.51C1607.03,1557.16 1575.91,1574.87 1540.19,1590.72C1506.14,1605.83 1472.99,1616.92 1453.67,1619.65Z" style="fill:rgb(214,107,9);fill-rule:nonzero;"/>
    <path d="M1450.47,1683.06L1450.57,1674.88C1469.54,1675.11 1514.33,1661.04 1562.01,1639.87C1612.03,1617.68 1654.05,1592.62 1664.18,1578.94L1670.76,1583.81C1659.69,1598.74 1617.32,1624.28 1565.33,1647.35C1515.9,1669.29 1470.82,1683.3 1450.47,1683.06Z" style="fill:rgb(214,107,9);fill-rule:nonzero;"/>
    <path d="M1512.89,1752.12C1544.14,1769.53 1582.2,1771.52 1615.34,1756.82C1648.47,1742.11 1672.52,1712.55 1680.57,1677.7C1656.59,1692.85 1628.78,1707.55 1599.28,1720.64C1569.78,1733.74 1540.22,1744.5 1512.89,1752.12ZM1568.9,1779.94C1541.88,1779.94 1515.05,1771.42 1492.65,1754.86C1490.58,1753.32 1489.57,1750.73 1490.08,1748.2C1490.59,1745.67 1492.52,1743.66 1495.02,1743.05C1525.52,1735.61 1559.7,1723.66 1593.89,1708.48C1628.06,1693.32 1659.85,1675.99 1685.83,1658.37C1687.97,1656.91 1690.75,1656.84 1692.97,1658.15C1695.18,1659.48 1696.44,1661.96 1696.19,1664.52C1691.66,1710.3 1662.74,1750.32 1620.73,1768.97C1604.16,1776.33 1586.49,1779.94 1568.9,1779.94Z" style="fill:rgb(35,35,35);fill-rule:nonzero;"/>
    <path d="M1749.58,1590.59C1756.79,1606.84 1732.45,1634.78 1689.57,1663.87C1664.18,1681.09 1632.28,1698.72 1596.58,1714.57C1560.88,1730.41 1526.4,1742.24 1496.6,1749.51C1446.26,1761.8 1409.21,1761.11 1402.01,1744.86C1395.46,1730.11 1414.92,1705.72 1450.66,1679.58C1451.83,1684.53 1453.31,1689.47 1455.14,1694.35C1445.25,1702.32 1440.37,1708.66 1442.03,1712.39C1443.71,1716.19 1451.96,1716.78 1464.92,1714.66C1489.97,1710.56 1532.59,1696.33 1579.29,1675.61C1626,1654.87 1665.13,1632.81 1684.97,1616.99C1695.24,1608.8 1700.34,1602.29 1698.65,1598.49C1697,1594.76 1689.01,1594.12 1676.48,1596.11C1674.09,1591.48 1671.42,1587.07 1668.53,1582.88C1711.89,1573.91 1743.03,1575.84 1749.58,1590.59Z" style="fill:rgb(255,197,54);fill-rule:nonzero;"/>
    <path d="M1439.89,1727.89C1434.01,1726.89 1429.77,1724.62 1428.01,1720.64C1424.46,1712.64 1432.06,1701.45 1451.26,1686.45L1455.33,1691.66C1437.3,1705.76 1432.52,1714.49 1434.06,1717.96C1436.65,1723.78 1459.19,1724.22 1502.59,1711.43C1526.86,1704.27 1554.31,1693.99 1582,1681.71C1609.68,1669.42 1635.72,1655.95 1657.31,1642.76C1695.91,1619.16 1710.71,1602.14 1708.13,1596.32C1706.58,1592.84 1696.9,1590.53 1674.35,1594.45L1673.22,1587.93C1697.23,1583.76 1710.62,1585.62 1714.17,1593.63C1720.55,1608.01 1688.65,1631.35 1660.76,1648.4C1638.93,1661.75 1612.63,1675.35 1584.68,1687.76C1556.74,1700.16 1529,1710.54 1504.45,1717.78C1481.78,1724.46 1455.25,1730.49 1439.89,1727.89Z" style="fill:rgb(255,236,144);fill-rule:nonzero;"/>
    <path d="M1429.55,1743.98C1421.26,1742.57 1415,1739.37 1412.41,1733.55C1405.73,1718.48 1429.06,1696.83 1449.8,1681.32L1453.77,1686.62C1423.35,1709.36 1415.59,1724.38 1418.46,1730.86C1422.02,1738.86 1445.12,1743.12 1498.56,1728.83C1526.19,1721.45 1557.29,1710.22 1588.51,1696.37C1619.72,1682.52 1648.9,1666.99 1672.91,1651.45C1719.37,1621.4 1731.71,1601.4 1728.15,1593.41C1725.28,1586.93 1708.94,1582.61 1671.67,1589.91L1670.4,1583.42C1695.81,1578.43 1727.52,1575.66 1734.2,1590.72C1742.89,1610.3 1701.78,1640.65 1676.51,1657.01C1652.21,1672.73 1622.71,1688.43 1591.19,1702.42C1559.67,1716.41 1528.23,1727.75 1500.27,1735.22C1479.85,1740.69 1449.08,1747.3 1429.55,1743.98Z" style="fill:rgb(255,236,144);fill-rule:nonzero;"/>
    <path d="M1454.54,1746.19C1448.25,1746.19 1442.64,1745.73 1437.8,1744.8C1439.01,1744.85 1440.25,1744.87 1441.5,1744.87C1460.19,1744.87 1483.66,1739.67 1500.27,1735.22C1526.21,1728.3 1555.13,1718.03 1584.35,1705.42C1585.36,1705.44 1586.4,1705.45 1587.45,1705.45C1592.02,1705.45 1596.95,1705.21 1602.19,1704.74C1599.44,1706 1596.67,1707.25 1593.89,1708.48C1570.41,1718.9 1546.93,1727.81 1524.65,1734.77C1520.77,1735.83 1516.95,1736.81 1513.22,1737.72C1490.42,1743.29 1470.34,1746.19 1454.54,1746.19ZM1441.77,1738.22C1427.58,1738.22 1420.33,1735.05 1418.46,1730.86C1416.5,1726.43 1419.5,1718.01 1431.32,1705.86C1427.29,1711.67 1426.2,1716.57 1428.01,1720.64C1429.77,1724.62 1434.01,1726.89 1439.89,1727.89C1442.4,1728.31 1445.21,1728.51 1448.25,1728.51C1463.81,1728.51 1485.49,1723.37 1504.45,1717.78C1521.01,1712.89 1539.02,1706.58 1557.57,1699.18C1560.88,1701.39 1565.27,1703 1570.59,1704.04C1545.5,1714.39 1520.9,1722.86 1498.56,1728.83C1473.16,1735.63 1454.62,1738.22 1441.77,1738.22ZM1445.14,1721.81C1438.69,1721.53 1435.01,1720.11 1434.06,1717.96C1433.51,1716.72 1433.76,1714.82 1435.13,1712.25C1435.26,1713.2 1435.53,1714.15 1435.94,1715.09C1437.6,1718.82 1440.95,1720.85 1445.14,1721.81Z" style="fill:rgb(178,140,47);fill-rule:nonzero;"/>
    <path d="M1448.25,1728.51C1445.21,1728.51 1442.4,1728.31 1439.89,1727.89C1434.01,1726.89 1429.77,1724.62 1428.01,1720.64C1426.2,1716.57 1427.29,1711.67 1431.32,1705.86C1435.46,1701.6 1440.69,1696.88 1447.17,1691.71C1447.22,1691.88 1447.27,1692.05 1447.33,1692.21C1440.42,1698.21 1434.18,1705.31 1435.13,1712.25C1433.76,1714.82 1433.51,1716.72 1434.06,1717.96C1435.01,1720.11 1438.69,1721.53 1445.14,1721.81C1447.39,1722.33 1449.87,1722.54 1452.47,1722.54C1456.87,1722.54 1461.59,1721.94 1466,1721.22C1486.9,1717.8 1517.98,1708.01 1552.51,1694.15C1553.72,1696.08 1555.42,1697.76 1557.57,1699.18C1539.02,1706.58 1521.01,1712.89 1504.45,1717.78C1485.49,1723.37 1463.81,1728.51 1448.25,1728.51Z" style="fill:rgb(178,166,106);fill-rule:nonzero;"/>
    <path d="M1441.5,1744.87C1440.25,1744.87 1439.01,1744.85 1437.8,1744.8C1427.94,1742.9 1421.27,1739.04 1418.62,1733.07C1416.3,1727.85 1417.25,1721.42 1421.02,1714.13C1427.15,1707.33 1435.59,1699.51 1446.86,1690.76C1446.96,1691.08 1447.06,1691.4 1447.17,1691.71C1440.69,1696.88 1435.46,1701.6 1431.32,1705.86C1419.5,1718.01 1416.5,1726.43 1418.46,1730.86C1420.33,1735.05 1427.58,1738.22 1441.77,1738.22C1454.62,1738.22 1473.16,1735.63 1498.56,1728.83C1520.9,1722.86 1545.5,1714.39 1570.59,1704.04C1574.65,1704.83 1579.26,1705.29 1584.35,1705.42C1555.13,1718.03 1526.21,1728.3 1500.27,1735.22C1483.66,1739.67 1460.19,1744.87 1441.5,1744.87Z" style="fill:rgb(178,166,106);fill-rule:nonzero;"/>
    <path d="M1446.86,1690.76C1413.23,1716.89 1404.75,1734.63 1408.08,1742.17C1412.49,1752.09 1441.09,1756.22 1495.02,1743.05C1525.52,1735.61 1559.7,1723.66 1593.89,1708.48C1628.06,1693.32 1659.85,1675.99 1685.83,1658.37C1731.79,1627.19 1747.91,1603.22 1743.5,1593.29C1740.16,1585.76 1721.31,1580.15 1679.38,1587.56C1679.63,1588 1679.88,1588.44 1680.13,1588.88C1690.46,1587.65 1701.26,1587.98 1704.73,1595.79C1708.78,1604.92 1698.51,1614.69 1689.12,1622.19C1667.95,1639.06 1627.9,1661.3 1581.99,1681.68C1536.07,1702.06 1492.71,1716.84 1466,1721.22C1454.14,1723.16 1440,1724.21 1435.94,1715.09C1432.48,1707.27 1439.48,1699.04 1447.33,1692.21C1447.17,1691.73 1447.01,1691.24 1446.86,1690.76ZM1437.88,1764.63C1418.38,1764.63 1401.64,1760.42 1395.93,1747.56C1385.91,1724.99 1418.03,1695.21 1446.73,1674.21C1448.54,1672.89 1450.87,1672.57 1452.96,1673.34C1455.06,1674.11 1456.62,1675.89 1457.13,1678.06C1458.24,1682.76 1459.66,1687.46 1461.37,1692.03C1462.37,1694.71 1461.54,1697.73 1459.31,1699.53C1453.5,1704.21 1450.75,1707.29 1449.46,1709.09C1451.74,1709.34 1456.04,1709.37 1463.85,1708.09C1489.12,1703.95 1532.32,1689.17 1576.59,1669.52C1620.86,1649.88 1660.8,1627.75 1680.83,1611.79C1687.01,1606.86 1689.89,1603.64 1691.22,1601.79C1689.01,1601.54 1684.89,1601.51 1677.52,1602.68C1674.7,1603.14 1671.89,1601.71 1670.58,1599.17C1668.34,1594.85 1665.81,1590.64 1663.06,1586.66C1661.79,1584.82 1661.53,1582.47 1662.36,1580.4C1663.18,1578.34 1665,1576.82 1667.18,1576.37C1702.01,1569.17 1745.64,1565.33 1755.66,1587.9C1767.29,1614.09 1721.58,1650.19 1693.3,1669.37C1666.68,1687.43 1634.16,1705.16 1599.28,1720.64C1564.39,1736.13 1529.43,1748.35 1498.18,1755.97C1481.28,1760.1 1458.09,1764.63 1437.88,1764.63Z" style="fill:rgb(35,35,35);fill-rule:nonzero;"/>
    <path d="M1476.46,1697.26C1475.31,1695.03 1474.2,1692.75 1473.17,1690.42C1473.07,1690.2 1472.98,1689.99 1472.88,1689.77C1471.98,1687.7 1471.14,1685.63 1470.37,1683.55C1470.03,1682.64 1469.7,1681.72 1469.38,1680.81C1485.3,1677.58 1506.38,1671.04 1529.9,1662.03C1534.76,1663.27 1539.89,1663.88 1545.05,1663.88C1546.79,1663.88 1548.52,1663.82 1550.26,1663.68C1563.98,1662.59 1583.06,1656.65 1603.13,1648.8C1593.41,1653.63 1583.11,1658.49 1572.38,1663.25C1535.47,1679.63 1501.11,1691.57 1476.46,1697.26ZM1466.96,1672.96C1466.57,1671.57 1466.22,1670.17 1465.89,1668.77C1465.84,1668.57 1465.8,1668.37 1465.75,1668.17C1465.08,1665.22 1464.52,1662.26 1464.07,1659.29C1475.43,1657.19 1489.96,1653.1 1506.3,1647.45C1509.56,1651.63 1513.71,1655.01 1518.43,1657.58C1498.38,1664.92 1480.48,1670.29 1466.96,1672.96ZM1463.12,1651.19C1462.98,1649.46 1462.87,1647.72 1462.8,1645.98C1462.43,1636.35 1463.22,1626.78 1465.08,1617.45C1474.22,1615.33 1485.05,1612.09 1496.86,1607.97C1496.87,1609.22 1496.9,1610.48 1496.95,1611.74C1497.23,1619.13 1498.21,1626.55 1499.89,1633.92C1499.94,1634.13 1499.99,1634.33 1500.03,1634.53C1500.1,1634.8 1500.18,1635.12 1500.29,1635.51C1500.77,1637.17 1501.35,1638.75 1502.02,1640.27C1486.92,1645.44 1473.51,1649.22 1463.12,1651.19ZM1467.23,1608.53C1467.58,1607.28 1467.95,1606.03 1468.34,1604.79C1472.73,1590.86 1479.61,1577.74 1488.71,1566.16C1494.92,1561.74 1501.62,1557.83 1508.8,1554.55C1506.32,1559.73 1504.21,1565.08 1502.49,1570.55C1499.56,1579.82 1497.74,1589.44 1497.11,1599.22C1486.13,1603.14 1475.97,1606.3 1467.23,1608.53Z" style="fill:rgb(178,128,12);fill-rule:nonzero;"/>
    <path d="M1480.15,1703.85C1478.86,1701.7 1477.63,1699.5 1476.46,1697.26C1501.11,1691.57 1535.47,1679.63 1572.38,1663.25C1583.11,1658.49 1593.41,1653.63 1603.13,1648.8C1626.83,1639.52 1651.91,1627.58 1671.15,1617.83C1671.27,1618.11 1671.39,1618.39 1671.51,1618.68C1649.77,1633.77 1614.79,1652.57 1576.59,1669.52C1545.25,1683.44 1514.45,1694.91 1490.17,1701.89C1486.58,1702.69 1483.23,1703.35 1480.15,1703.85Z" style="fill:rgb(152,82,18);fill-rule:nonzero;"/>
    <path d="M1464.07,1659.29C1463.66,1656.6 1463.34,1653.9 1463.12,1651.19C1473.51,1649.22 1486.92,1645.44 1502.02,1640.27C1503.18,1642.88 1504.62,1645.27 1506.3,1647.45C1489.96,1653.1 1475.43,1657.19 1464.07,1659.29Z" style="fill:rgb(152,82,18);fill-rule:nonzero;"/>
    <path d="M1465.08,1617.45C1465.69,1614.45 1466.4,1611.47 1467.23,1608.53C1475.97,1606.3 1486.13,1603.14 1497.11,1599.22C1496.92,1602.12 1496.84,1605.04 1496.86,1607.97C1485.05,1612.09 1474.22,1615.33 1465.08,1617.45Z" style="fill:rgb(152,82,18);fill-rule:nonzero;"/>
    <path d="M1469.38,1680.81C1468.48,1678.2 1467.67,1675.59 1466.96,1672.96C1480.48,1670.29 1498.38,1664.92 1518.43,1657.58C1521.97,1659.51 1525.84,1660.99 1529.9,1662.03C1506.38,1671.04 1485.3,1677.58 1469.38,1680.81Z" style="fill:rgb(152,82,18);fill-rule:nonzero;"/>
    <path d="M1490.17,1701.89C1514.45,1694.91 1545.25,1683.44 1576.59,1669.52C1614.79,1652.57 1649.77,1633.77 1671.51,1618.68C1672.27,1620.53 1672.98,1622.38 1673.64,1624.24C1652.79,1636.9 1625.3,1651.14 1594.53,1664.8C1553.57,1682.98 1515.74,1696.15 1490.17,1701.89ZM1681.62,1619.27C1681.03,1617.33 1680.38,1615.39 1679.69,1613.45C1689.14,1608.55 1696.51,1604.53 1700.62,1602.18C1701.9,1605.4 1699.22,1602.92 1700.2,1606.18C1695.18,1610.18 1688.92,1614.59 1681.62,1619.27Z" style="fill:rgb(35,35,35);fill-rule:nonzero;"/>
    <path d="M1506.36,1548.01C1509.71,1545.22 1513.24,1542.59 1516.94,1540.15C1516.24,1541.2 1515.56,1542.27 1514.9,1543.35C1511.97,1544.8 1509.12,1546.36 1506.36,1548.01Z" style="fill:rgb(140,140,178);fill-rule:nonzero;"/>
    <path d="M1504.66,1549.45C1505.22,1548.97 1505.79,1548.49 1506.36,1548.01C1509.12,1546.36 1511.97,1544.8 1514.9,1543.35C1514.66,1543.73 1514.44,1544.1 1514.21,1544.48C1510.92,1546.01 1507.74,1547.67 1504.66,1549.45Z" style="fill:rgb(178,128,12);fill-rule:nonzero;"/>
    <path d="M1673.96,1625.15C1673.86,1624.85 1673.75,1624.54 1673.64,1624.24C1676.42,1622.56 1679.08,1620.9 1681.62,1619.27C1681.63,1619.31 1681.64,1619.35 1681.65,1619.39C1679.34,1621.23 1676.77,1623.15 1673.96,1625.15Z" style="fill:rgb(126,126,126);fill-rule:nonzero;"/>
    <path d="M1667.87,1610.66C1667.58,1610.08 1667.28,1609.5 1666.99,1608.92C1664.59,1604.3 1661.92,1599.88 1659.03,1595.69C1658.95,1595.58 1658.87,1595.45 1658.79,1595.34C1661.2,1593.44 1663.34,1591.61 1665.2,1589.87C1667.13,1592.88 1668.93,1595.99 1670.58,1599.17C1671.53,1601 1673.26,1602.26 1675.2,1602.64C1675.38,1603.01 1675.54,1603.38 1675.71,1603.74C1675.79,1603.89 1675.86,1604.04 1675.92,1604.19C1673.57,1606.24 1670.88,1608.41 1667.87,1610.66ZM1653.92,1588.84C1650.97,1585.16 1647.83,1581.69 1644.52,1578.43C1648.05,1575.59 1650.96,1572.93 1653.15,1570.51C1656.32,1573.82 1659.33,1577.33 1662.14,1581.04C1662.09,1581.2 1662.05,1581.37 1662.02,1581.53C1659.96,1583.75 1657.23,1586.2 1653.92,1588.84ZM1638.42,1572.82C1629.57,1565.22 1619.72,1558.99 1609.2,1554.25C1609.06,1554.19 1608.93,1554.13 1608.8,1554.07C1613.01,1551.21 1616.7,1548.47 1619.75,1545.91C1629.7,1550.87 1638.99,1557.21 1647.31,1564.8C1645.28,1567.09 1642.3,1569.79 1638.42,1572.82ZM1508.8,1554.55C1510.44,1551.12 1512.25,1547.75 1514.21,1544.48C1514.9,1544.16 1515.59,1543.85 1516.29,1543.53C1532.28,1536.44 1549,1533.07 1565.44,1533.07C1581.3,1533.07 1596.92,1536.21 1611.4,1542.13C1608.04,1544.73 1604.06,1547.5 1599.57,1550.4C1586.7,1545.87 1573.07,1543.5 1559.25,1543.5C1542.81,1543.5 1526.1,1546.86 1510.11,1553.96C1509.67,1554.15 1509.23,1554.35 1508.8,1554.55Z" style="fill:rgb(255,210,105);fill-rule:nonzero;"/>
    <path d="M1671.15,1617.83C1670.85,1617.09 1670.53,1616.36 1670.2,1615.62C1669.99,1615.13 1669.76,1614.65 1669.54,1614.16C1669,1612.98 1668.44,1611.82 1667.87,1610.66C1670.88,1608.41 1673.57,1606.24 1675.92,1604.19C1676.08,1604.53 1676.23,1604.86 1676.38,1605.21C1677.5,1607.74 1678.53,1610.29 1679.47,1612.86C1678.53,1613.59 1677.55,1614.33 1676.53,1615.08C1674.8,1615.97 1673,1616.89 1671.15,1617.83Z" style="fill:rgb(231,168,110);fill-rule:nonzero;"/>
    <path d="M1644.52,1578.43C1644.1,1578.02 1643.67,1577.61 1643.25,1577.2C1641.68,1575.69 1640.07,1574.23 1638.42,1572.82C1642.3,1569.79 1645.28,1567.09 1647.31,1564.8C1648.02,1565.45 1648.73,1566.11 1649.43,1566.78C1650.7,1567.99 1651.94,1569.23 1653.15,1570.51C1650.96,1572.93 1648.05,1575.59 1644.52,1578.43Z" style="fill:rgb(231,168,110);fill-rule:nonzero;"/>
    <path d="M1608.8,1554.07C1605.77,1552.72 1602.69,1551.5 1599.57,1550.4C1604.06,1547.5 1608.04,1544.73 1611.4,1542.13C1612.74,1542.67 1614.06,1543.24 1615.37,1543.83C1616.84,1544.5 1618.31,1545.19 1619.75,1545.91C1616.7,1548.47 1613.01,1551.21 1608.8,1554.07Z" style="fill:rgb(231,168,110);fill-rule:nonzero;"/>
    <path d="M1658.79,1595.34C1658.52,1594.95 1658.25,1594.58 1657.97,1594.2C1656.67,1592.37 1655.32,1590.58 1653.92,1588.84C1657.23,1586.2 1659.96,1583.75 1662.02,1581.53C1661.65,1583.29 1662.02,1585.15 1663.06,1586.66C1663.79,1587.72 1664.5,1588.78 1665.2,1589.87C1663.34,1591.61 1661.2,1593.44 1658.79,1595.34Z" style="fill:rgb(231,168,110);fill-rule:nonzero;"/>
    <path d="M1676.53,1615.08C1677.55,1614.33 1678.53,1613.59 1679.47,1612.86C1679.54,1613.06 1679.62,1613.26 1679.69,1613.45C1678.66,1613.98 1677.61,1614.53 1676.53,1615.08ZM1675.2,1602.64C1673.26,1602.26 1671.53,1601 1670.58,1599.17C1668.93,1595.99 1667.13,1592.88 1665.2,1589.87C1664.5,1588.78 1663.79,1587.72 1663.06,1586.66C1662.02,1585.15 1661.65,1583.29 1662.02,1581.53C1662.05,1581.37 1662.09,1581.2 1662.14,1581.04C1662.82,1581.94 1663.49,1582.85 1664.15,1583.77C1664.51,1584.27 1664.86,1584.78 1665.21,1585.28C1668.11,1589.47 1670.76,1593.87 1673.16,1598.5C1673.86,1599.87 1674.55,1601.24 1675.2,1602.64Z" style="fill:rgb(126,126,126);fill-rule:nonzero;"/>
    <path d="M1458.23,1597.76C1467.08,1580.98 1479.9,1566.17 1496.08,1554.91C1484.37,1563.67 1474.54,1574.34 1466.86,1586.26C1463.75,1589.93 1460.87,1593.78 1458.23,1597.76Z" style="fill:rgb(221,221,255);fill-rule:nonzero;"/>
    <path d="M1466.86,1586.26C1474.54,1574.34 1484.37,1563.67 1496.08,1554.91C1498.84,1552.98 1501.7,1551.16 1504.66,1549.45C1498.77,1554.54 1493.44,1560.14 1488.71,1566.16C1480.52,1572.01 1473.21,1578.78 1466.86,1586.26Z" style="fill:rgb(255,210,105);fill-rule:nonzero;"/>
    <path d="M1671.51,1618.68C1671.39,1618.39 1671.27,1618.11 1671.15,1617.83C1673,1616.89 1674.8,1615.97 1676.53,1615.08C1674.95,1616.26 1673.27,1617.45 1671.51,1618.68Z" style="fill:rgb(194,153,116);fill-rule:nonzero;"/>
    <path d="M1673.64,1624.24C1672.98,1622.38 1672.27,1620.53 1671.51,1618.68C1673.27,1617.45 1674.95,1616.26 1676.53,1615.08C1677.61,1614.53 1678.66,1613.98 1679.69,1613.45C1680.38,1615.39 1681.03,1617.33 1681.62,1619.27C1679.08,1620.9 1676.42,1622.56 1673.64,1624.24Z" style="fill:rgb(126,126,126);fill-rule:nonzero;"/>
    <path d="M1488.71,1566.16C1493.44,1560.14 1498.77,1554.54 1504.66,1549.45C1507.74,1547.67 1510.92,1546.01 1514.21,1544.48C1512.25,1547.75 1510.44,1551.12 1508.8,1554.55C1501.62,1557.83 1494.92,1561.74 1488.71,1566.16Z" style="fill:rgb(210,180,112);fill-rule:nonzero;"/>
    <path d="M1568.78,1537.36C1553.15,1537.36 1537.33,1540.55 1522.3,1547.22C1472.01,1569.54 1444.6,1624.57 1457.13,1678.06C1458.24,1682.76 1459.66,1687.46 1461.37,1692.03C1462.19,1694.22 1463.08,1696.41 1464.02,1698.53C1465.34,1701.51 1466.79,1704.43 1468.35,1707.28C1494.06,1702.25 1534.85,1688.05 1576.59,1669.52C1618.33,1651 1656.22,1630.27 1677.2,1614.59C1676.14,1611.52 1674.94,1608.49 1673.62,1605.5C1672.66,1603.35 1671.63,1601.21 1670.58,1599.17C1668.34,1594.85 1665.81,1590.64 1663.06,1586.66C1641.14,1554.98 1605.48,1537.36 1568.78,1537.36ZM1464.92,1721.31C1462.61,1721.31 1460.44,1720.1 1459.22,1718.09C1456.5,1713.56 1454.03,1708.8 1451.87,1703.93C1450.81,1701.56 1449.82,1699.12 1448.9,1696.68C1447,1691.59 1445.42,1686.35 1444.18,1681.09C1430.19,1621.39 1460.78,1559.98 1516.91,1535.06C1573.05,1510.15 1639.11,1528.67 1674,1579.1C1677.07,1583.54 1679.89,1588.23 1682.39,1593.05C1683.57,1595.33 1684.71,1597.7 1685.78,1600.11L1685.78,1600.11C1687.94,1604.99 1689.82,1610.02 1691.34,1615.07C1692.13,1617.67 1691.25,1620.5 1689.12,1622.19C1667.95,1639.06 1627.9,1661.3 1581.99,1681.68C1536.07,1702.06 1492.71,1716.84 1466,1721.22C1465.64,1721.28 1465.28,1721.31 1464.92,1721.31Z" style="fill:rgb(35,35,35);fill-rule:nonzero;"/>
    <path d="M332.63,1815.75C368.597,1788.39 391.499,1748.76 386.855,1702.81C385.547,1688.26 381.801,1673.84 376.747,1659.52C385.469,1671.96 391.631,1686.43 394.493,1701.74C404.227,1748.74 376.62,1797.71 332.63,1815.75Z" style="fill:rgb(55,26,69);fill-rule:nonzero;"/>
    <path d="M125.898,1539.6C91.386,1545.56 60.29,1564.2 45.008,1596.35C39.946,1606.62 36.447,1617.78 33.674,1629.51C27.734,1577.04 73.495,1532.04 125.898,1539.6Z" style="fill:rgb(55,26,69);fill-rule:nonzero;"/>
    <path d="M50.519,1537.85C30.721,1547.48 14.318,1562.24 8.033,1583.65C5.831,1590.48 4.632,1597.77 3.573,1605.57C-9.779,1573.95 16.148,1536.29 50.519,1537.85Z" style="fill:rgb(55,26,69);fill-rule:nonzero;"/>
    <path d="M94.932,1821.96C132.762,1851.73 178.65,1862.05 225.589,1851.41C183.329,1876.75 122.27,1862.92 94.932,1821.96Z" style="fill:rgb(55,26,69);fill-rule:nonzero;"/>
    <path d="M334.455,1722.81C311.348,1791.29 237.114,1828.07 168.631,1804.98C156.76,1800.97 145.847,1795.43 136.034,1788.65C131.758,1785.7 127.692,1782.51 123.852,1779.12C86.888,1746.47 70.28,1694.36 84.811,1644.5C85.32,1642.71 85.879,1640.94 86.478,1639.16C88.212,1634.03 90.237,1629.06 92.53,1624.3C100.463,1607.71 111.605,1593.44 124.915,1581.95C125.774,1581.21 126.647,1580.48 127.526,1579.76C142.007,1567.91 158.893,1559.28 176.96,1554.48C200.946,1548.1 227.01,1548.47 252.296,1556.99C266.249,1561.7 278.88,1568.52 289.964,1577C333.274,1610.11 352.851,1668.28 334.455,1722.81Z" style="fill:rgb(255,210,67);fill-rule:nonzero;"/>
    <path d="M111.713,1767.62C114.609,1770.74 117.66,1773.72 120.868,1776.56C124.708,1779.95 128.776,1783.13 133.05,1786.08C142.863,1792.86 153.777,1798.4 165.648,1802.41C234.131,1825.51 308.366,1788.72 331.467,1720.24C346.996,1674.21 335.461,1625.59 305.433,1591.63C302.668,1588.63 299.777,1585.73 296.723,1582.99C321.438,1616.26 329.979,1660.69 315.727,1702.94C292.626,1771.42 218.39,1808.2 149.907,1785.11C138.036,1781.11 127.123,1775.56 117.31,1768.78C113.035,1765.84 108.967,1762.65 105.127,1759.26C104.817,1758.98 104.506,1758.7 104.196,1758.43C107.295,1762.59 110.655,1766.58 114.248,1770.38C113.39,1769.47 112.544,1768.55 111.713,1767.62Z" style="fill:rgb(255,157,51);fill-rule:nonzero;"/>
    <path d="M118.234,1588.13C121.467,1584.67 124.875,1581.39 128.44,1578.32C129.299,1577.57 130.173,1576.85 131.051,1576.12C145.532,1564.27 162.418,1555.64 180.485,1550.84C188.978,1548.59 197.728,1547.18 206.616,1546.68L206.616,1550.15C196.52,1550.45 186.573,1551.92 176.96,1554.48C158.893,1559.28 142.007,1567.91 127.526,1579.76C126.647,1580.48 125.774,1581.21 124.915,1581.95C122.622,1583.93 120.393,1585.99 118.234,1588.13ZM253.786,1552.71C244.593,1550.76 235.372,1549.82 226.251,1549.82C225.045,1549.82 223.84,1549.84 222.636,1549.87L222.636,1546.76C233.006,1547.46 243.455,1549.41 253.786,1552.71Z" style="fill:rgb(220,220,255);fill-rule:nonzero;"/>
    <path d="M216.041,1550.21C214.176,1550.13 212.315,1550.09 210.456,1550.09C209.175,1550.09 207.893,1550.12 206.616,1550.15L206.616,1546.68C209.042,1546.54 211.477,1546.47 213.92,1546.47C216.816,1546.47 219.724,1546.57 222.636,1546.76L222.636,1549.87C220.43,1549.93 218.231,1550.04 216.041,1550.21Z" style="fill:rgb(135,118,143);fill-rule:nonzero;"/>
    <path d="M132.07,1777.6C130.049,1776.57 128.064,1775.48 126.116,1774.36C90.039,1741.64 73.972,1690.15 88.335,1640.86C88.844,1639.08 89.404,1637.3 90.003,1635.53C91.737,1630.39 93.761,1625.43 96.055,1620.66C101.864,1608.52 109.393,1597.61 118.234,1588.13C120.393,1585.99 122.622,1583.93 124.915,1581.95C125.774,1581.21 126.647,1580.48 127.526,1579.76C142.007,1567.91 158.893,1559.28 176.96,1554.48C186.573,1551.92 196.52,1550.45 206.616,1550.15C207.893,1550.12 209.175,1550.09 210.456,1550.09C212.315,1550.09 214.176,1550.13 216.041,1550.21C183.875,1552.7 153.599,1566.86 131.072,1589.79L131.093,1589.8C137.582,1594.11 137.414,1605.77 130.721,1615.85C125.717,1623.38 118.485,1627.89 112.442,1627.89C110.399,1627.89 108.491,1627.38 106.851,1626.28C106.548,1626.09 106.254,1625.87 105.98,1625.63C103.688,1630.42 101.66,1635.4 99.922,1640.57C83.162,1690.25 97.336,1742.9 132.07,1777.6Z" style="fill:rgb(255,228,142);fill-rule:nonzero;"/>
    <path d="M142.504,1786.97C141.515,1786.33 140.527,1785.68 139.559,1785.01C135.284,1782.07 131.216,1778.88 127.376,1775.49C126.952,1775.11 126.534,1774.74 126.116,1774.36C128.064,1775.48 130.049,1776.57 132.07,1777.6C135.366,1780.89 138.846,1784.02 142.504,1786.97Z" style="fill:rgb(255,196,133);fill-rule:nonzero;"/>
    <path d="M210.963,1556.35C159.189,1556.35 110.777,1589.05 93.334,1640.75C82.741,1672.15 85.009,1705.79 99.718,1735.47C114.426,1765.15 139.815,1787.34 171.206,1797.92C236.012,1819.79 306.517,1784.84 328.383,1720.04C338.973,1688.64 336.708,1655.01 321.998,1625.32C307.288,1595.64 281.898,1573.46 250.508,1562.87C237.413,1558.45 224.079,1556.35 210.963,1556.35ZM210.737,1818.08C196.178,1818.08 181.388,1815.75 166.846,1810.85C132.004,1799.09 103.821,1774.47 87.497,1741.52C71.17,1708.57 68.652,1671.24 80.409,1636.39C104.676,1564.46 182.948,1525.69 254.87,1549.95C289.711,1561.7 317.89,1586.32 334.22,1619.27C350.544,1652.22 353.062,1689.55 341.304,1724.4C321.944,1781.79 268.201,1818.08 210.737,1818.08Z" style="fill:rgb(35,35,35);fill-rule:nonzero;"/>
    <path d="M144.434,1657.23C132.872,1668.1 118.936,1669.9 113.306,1661.25C107.677,1652.61 112.485,1636.79 124.046,1625.92C135.608,1615.06 149.544,1613.26 155.174,1621.9C160.803,1630.55 155.995,1646.37 144.434,1657.23Z" style="fill:rgb(255,157,51);fill-rule:nonzero;"/>
    <path d="M144.009,1656.37C134.256,1666.17 123.872,1669.25 120.815,1663.25C117.76,1657.25 123.188,1644.45 132.941,1634.64C142.694,1624.85 153.078,1621.76 156.134,1627.76C159.19,1633.75 153.762,1646.57 144.009,1656.37Z" style="fill:rgb(255,210,67);fill-rule:nonzero;"/>
    <path d="M143.122,1614.85C157.239,1612.75 162.481,1627.8 159.037,1639.07C154.545,1654.84 140.974,1670.19 123.398,1670.15C101.181,1667.53 107.937,1639.89 119.665,1629.07C120.484,1628.19 121.915,1629.34 121.251,1630.33C118.519,1634.57 116.113,1639.01 114.945,1643.76C112.409,1651.74 113.679,1663.6 123.73,1663.75C137.5,1663.17 148.995,1649.89 153.275,1637.45C156.452,1628.75 154.124,1617.39 143.263,1617.35C141.755,1617.35 141.657,1615.03 143.122,1614.85Z" style="fill:rgb(35,35,35);fill-rule:nonzero;"/>
    <path d="M158.43,1658.4C154.076,1677.12 122.832,1689.66 110.367,1672.17C109.795,1671.2 111.105,1670.14 111.93,1670.88C126.429,1680.29 146.732,1669.81 156.14,1657.36C156.891,1656.21 158.798,1657.08 158.43,1658.4Z" style="fill:rgb(35,35,35);fill-rule:nonzero;"/>
    <path d="M168.914,1739.32C178.652,1751.88 179.119,1765.95 169.959,1770.75C160.798,1775.54 145.478,1769.24 135.741,1756.67C126.004,1744.1 125.536,1730.03 134.697,1725.24C143.857,1720.45 159.177,1726.75 168.914,1739.32Z" style="fill:rgb(255,157,51);fill-rule:nonzero;"/>
    <path d="M167.914,1739.65C176.743,1750.29 178.824,1760.92 172.563,1763.39C166.301,1765.87 154.068,1759.25 145.239,1748.61C136.41,1737.96 134.328,1727.34 140.59,1724.86C146.851,1722.39 159.085,1729.01 167.914,1739.65Z" style="fill:rgb(255,210,67);fill-rule:nonzero;"/>
    <path d="M126.496,1736.59C125.757,1722.34 141.227,1718.55 152.12,1723.05C167.402,1729.02 181.388,1743.99 179.672,1761.48C174.96,1783.35 148.086,1774 138.432,1761.29C137.619,1760.38 138.947,1759.06 139.854,1759.85C147.044,1765.67 157.004,1770.89 166.122,1768.84C181.201,1763.59 169.967,1743.61 161.729,1736.51C153.531,1727.8 131.777,1719.22 129.007,1736.69C128.855,1738.19 126.537,1738.07 126.496,1736.59Z" style="fill:rgb(35,35,35);fill-rule:nonzero;"/>
    <path d="M171.307,1725.49C189.53,1731.6 199.043,1763.9 180.449,1774.64C179.432,1775.12 178.5,1773.71 179.316,1772.96C190.057,1759.42 181.554,1738.22 170.061,1727.67C168.987,1726.81 170.038,1724.99 171.307,1725.49Z" style="fill:rgb(35,35,35);fill-rule:nonzero;"/>
    <path d="M201.123,1656.37C209.352,1645.63 223.503,1642.55 232.73,1649.49C241.957,1656.43 242.765,1670.76 234.535,1681.51C226.307,1692.26 212.156,1695.34 202.929,1688.39C193.702,1681.45 192.893,1667.12 201.123,1656.37Z" style="fill:rgb(255,157,51);fill-rule:nonzero;"/>
    <path d="M213.126,1664.48C221.811,1659.2 232.131,1660.73 236.176,1667.88C240.22,1675.03 236.458,1685.11 227.773,1690.38C219.088,1695.65 208.768,1694.13 204.724,1686.98C200.679,1679.82 204.441,1669.75 213.126,1664.48Z" style="fill:rgb(255,210,67);fill-rule:nonzero;"/>
    <path d="M234.297,1681.32C242.349,1669.47 239.59,1650.73 224.51,1648.33C210.814,1646.26 197.718,1659.05 197.245,1672.57C196.565,1682.15 203.411,1691.02 213.238,1692.12C214.438,1692.26 214.328,1694.12 213.142,1694.15C201.537,1695.03 191.371,1684.04 191.654,1672.55C191.34,1660.96 198.324,1649.96 208.554,1644.6C235.185,1631.24 255.304,1661.71 236.291,1682.84C235.293,1683.99 233.457,1682.56 234.297,1681.32Z" style="fill:rgb(35,35,35);fill-rule:nonzero;"/>
    <path d="M189.736,1685.51C205.46,1715.99 246.676,1696.35 249.786,1667.6C251.122,1658.21 248.307,1648.37 241.106,1641.82C240.179,1641.04 241.33,1639.53 242.324,1640.2C262.014,1652.87 257.539,1682.97 241.177,1696.65C224.813,1712.36 194.098,1710.71 187.374,1686.36C186.953,1684.91 189.136,1684.13 189.736,1685.51Z" style="fill:rgb(35,35,35);fill-rule:nonzero;"/>
    <path d="M194.576,1574.71C200.081,1570.1 207.767,1570.14 211.742,1574.8C215.716,1579.46 214.475,1586.98 208.969,1591.59C203.464,1596.21 195.778,1596.17 191.803,1591.5C187.829,1586.84 189.069,1579.32 194.576,1574.71Z" style="fill:rgb(255,157,51);fill-rule:nonzero;"/>
    <path d="M199.854,1580.29C204.962,1578.57 210.13,1580.55 211.397,1584.73C212.664,1588.9 209.549,1593.68 204.441,1595.4C199.332,1597.13 194.164,1595.15 192.897,1590.97C191.631,1586.8 194.745,1582.02 199.854,1580.29Z" style="fill:rgb(255,210,67);fill-rule:nonzero;"/>
    <path d="M208.76,1591.34C212.368,1587.61 213.862,1582.11 212.047,1578.01C207.578,1568.63 193.063,1573.82 191.064,1582.73C189.598,1587.48 191.933,1592.68 196.746,1594.49C197.485,1594.77 197.15,1595.93 196.391,1595.79C181.177,1592.26 186.705,1571.9 199.671,1569.02C215.319,1564.98 222.682,1583.89 209.834,1592.62C209.019,1593.18 208.071,1592.02 208.76,1591.34Z" style="fill:rgb(35,35,35);fill-rule:nonzero;"/>
    <path d="M185.475,1588.46C190.019,1605.41 213.439,1600.05 218.117,1586.03C219.866,1581.54 219.755,1576.2 216.863,1571.88C216.396,1571.25 217.342,1570.46 217.891,1571.01C226.957,1579.85 221.115,1595.33 210.88,1600.61C200.708,1607.07 183.984,1602.16 183.814,1588.67C183.773,1587.68 185.269,1587.5 185.475,1588.46Z" style="fill:rgb(35,35,35);fill-rule:nonzero;"/>
    <path d="M245.806,1588.49C238.18,1607.89 259.237,1624.91 277.622,1621.79C283.796,1620.97 289.874,1618.34 294.512,1613.71C295.168,1612.98 296.367,1613.93 295.819,1614.74C283.398,1633.94 250.237,1629.65 242.06,1608.49C239.207,1601.62 239.955,1593.39 243.979,1587.52C244.647,1586.51 246.267,1587.37 245.806,1588.49Z" style="fill:rgb(35,35,35);fill-rule:nonzero;"/>
    <path d="M278.646,1584.29C288.615,1589.4 293.331,1600.27 289.181,1608.58C285.037,1616.88 273.592,1619.48 263.623,1614.37C253.653,1609.27 248.937,1598.39 253.086,1590.08C257.237,1581.78 268.676,1579.18 278.646,1584.29Z" style="fill:rgb(255,157,51);fill-rule:nonzero;"/>
    <path d="M285.061,1609.63C281.398,1614.35 274.429,1616.59 267.134,1614.78C257.412,1612.36 250.789,1603.7 252.331,1595.42C252.547,1594.26 252.917,1593.16 253.421,1592.14C257.551,1589.82 262.942,1589.07 268.508,1590.45C278.38,1592.89 285.356,1601.2 285.061,1609.63Z" style="fill:rgb(255,210,67);fill-rule:nonzero;"/>
    <path d="M275.116,1583.68C264.821,1582.38 253.647,1590 256.238,1600.55C258.834,1610.3 271.302,1614.61 280.236,1610.64C286.645,1607.99 290.536,1600.95 288.476,1594.05C288.193,1593.11 289.609,1592.58 290.03,1593.44C298.283,1612.62 272.116,1624.18 258.069,1612.65C240.866,1599.07 255.762,1575.61 275.531,1581.66C276.718,1582.01 276.32,1583.84 275.116,1583.68Z" style="fill:rgb(35,35,35);fill-rule:nonzero;"/>
    <path d="M301.529,1681.92C308.264,1680.18 315.004,1680.44 321.052,1683.09C332.015,1687.91 337.605,1699.18 338.177,1713.04C338.557,1722.14 336.515,1732.22 331.81,1742.02C319.932,1766.76 295.578,1780.36 277.423,1772.38C270.664,1769.41 265.719,1763.88 262.779,1756.82C257.828,1744.91 259.207,1728.99 266.671,1713.46" style="fill:rgb(255,210,67);fill-rule:nonzero;"/>
    <path d="M321.558,1681.94C333.22,1685.82 339.774,1698.41 340.918,1710.04C344.081,1738.96 324.034,1771.55 294.289,1776.3C288.374,1776.95 282.175,1776.13 277.013,1773.31C276.525,1773.04 276.345,1772.42 276.61,1771.93C276.851,1771.49 277.375,1771.3 277.826,1771.45C282.983,1773.15 288.434,1773.36 293.578,1772.1C319.456,1765.2 336.208,1736.47 335.069,1710.57C334.467,1700.08 330.292,1689.38 320.546,1684.24C319.209,1683.58 320.167,1681.41 321.558,1681.94Z" style="fill:rgb(35,35,35);fill-rule:nonzero;"/>
    <path d="M277.567,1710.45C289.771,1693.58 309.294,1687.57 321.173,1697.03C333.051,1706.49 332.792,1727.84 320.588,1744.71C308.384,1761.58 288.862,1767.59 276.983,1758.13C265.104,1748.67 265.363,1727.32 277.567,1710.45Z" style="fill:rgb(255,157,51);fill-rule:nonzero;"/>
    <path d="M288.344,1720.37C299.722,1706.88 315.462,1702.26 323.498,1710.03C331.539,1717.81 328.835,1735.05 317.456,1748.54C306.077,1762.03 290.337,1766.66 282.301,1758.88C274.26,1751.1 276.964,1733.86 288.344,1720.37Z" style="fill:rgb(255,210,67);fill-rule:nonzero;"/>
    <path d="M297.734,1763.79C281.319,1769.61 266.911,1756.2 266.159,1739.9C264.502,1717.61 279.652,1693.01 302.602,1688.91C331.383,1685.65 336.9,1719.32 324.865,1739.01C324.269,1740.11 322.564,1739.27 323.04,1738.13C330.63,1721.62 327.25,1691.76 303.577,1695.25C284.464,1699.25 271.55,1720.65 272.128,1739.49C272.182,1753.28 282.989,1764.52 297.108,1761.36C298.608,1761.03 299.186,1763.35 297.734,1763.79Z" style="fill:rgb(35,35,35);fill-rule:nonzero;"/>
</svg>
